<svg xmlns="http://www.w3.org/2000/svg" viewBox="0 0 128 128" width="128" height="128" role="img" aria-label="MercuryPitch">
  <defs>
    <radialGradient id="sgBg" cx="42%" cy="34%" r="76%">
      <stop offset="0" stop-color="#1c2634"/><stop offset="1" stop-color="#090d13"/>
    </radialGradient>
    <linearGradient id="sgWave" x1="0" y1="0" x2="1" y2="1">
      <stop offset="0" stop-color="#58a6ff"/><stop offset=".5" stop-color="#2dd4bf"/><stop offset="1" stop-color="#bc8cff"/>
    </linearGradient>
    <linearGradient id="sgRim" x1="0" y1="0" x2="1" y2="1">
      <stop offset="0" stop-color="#7cc0ff"/><stop offset=".5" stop-color="#4fe3d0"/><stop offset="1" stop-color="#cbacff"/>
    </linearGradient>
    <clipPath id="sgClip"><circle cx="64" cy="64" r="50"/></clipPath>
  </defs>
  <circle cx="64" cy="64" r="50" fill="url(#sgBg)"/>
  <g clip-path="url(#sgClip)">
    <path d="M8.00 47.00 C8.93 48.13 11.73 51.94 13.60 53.76 C15.47 55.58 17.33 57.24 19.20 57.94 C21.07 58.63 22.93 58.63 24.80 57.94 C26.67 57.24 28.53 55.58 30.40 53.76 C32.27 51.94 34.13 49.25 36.00 47.00 C37.87 44.75 39.73 42.06 41.60 40.24 C43.47 38.42 45.33 36.76 47.20 36.06 C49.07 35.37 50.93 35.37 52.80 36.06 C54.67 36.76 56.53 38.42 58.40 40.24 C60.27 42.06 62.13 44.75 64.00 47.00 C65.87 49.25 67.73 51.94 69.60 53.76 C71.47 55.58 73.33 57.24 75.20 57.94 C77.07 58.63 78.93 58.63 80.80 57.94 C82.67 57.24 84.53 55.58 86.40 53.76 C88.27 51.94 90.13 49.25 92.00 47.00 C93.87 44.75 95.73 42.06 97.60 40.24 C99.47 38.42 101.33 36.76 103.20 36.06 C105.07 35.37 106.93 35.37 108.80 36.06 C110.67 36.76 112.53 38.42 114.40 40.24 C116.27 42.06 119.07 45.87 120.00 47.00" fill="none" stroke="url(#sgWave)" stroke-width="6.0" stroke-linecap="round" opacity="0.9"/>
    <path d="M8.00 69.26 C8.93 70.31 11.73 74.20 13.60 75.56 C15.47 76.93 17.33 77.68 19.20 77.45 C21.07 77.22 22.93 75.93 24.80 74.20 C26.67 72.47 28.53 69.63 30.40 67.06 C32.27 64.48 34.13 61.18 36.00 58.74 C37.87 56.31 39.73 53.80 41.60 52.44 C43.47 51.07 45.33 50.32 47.20 50.55 C49.07 50.78 50.93 52.07 52.80 53.80 C54.67 55.53 56.53 58.37 58.40 60.94 C60.27 63.52 62.13 66.82 64.00 69.26 C65.87 71.69 67.73 74.20 69.60 75.56 C71.47 76.93 73.33 77.68 75.20 77.45 C77.07 77.22 78.93 75.93 80.80 74.20 C82.67 72.47 84.53 69.63 86.40 67.06 C88.27 64.48 90.13 61.18 92.00 58.74 C93.87 56.31 95.73 53.80 97.60 52.44 C99.47 51.07 101.33 50.32 103.20 50.55 C105.07 50.78 106.93 52.07 108.80 53.80 C110.67 55.53 112.53 58.37 114.40 60.94 C116.27 63.52 119.07 67.87 120.00 69.26" fill="none" stroke="url(#sgWave)" stroke-width="7.0" stroke-linecap="round" opacity="1.0"/>
    <path d="M8.00 89.25 C8.93 89.77 11.73 92.06 13.60 92.38 C15.47 92.70 17.33 92.22 19.20 91.17 C21.07 90.12 22.93 88.09 24.80 86.07 C26.67 84.05 28.53 81.26 30.40 79.04 C32.27 76.82 34.13 74.32 36.00 72.75 C37.87 71.18 39.73 69.94 41.60 69.62 C43.47 69.30 45.33 69.78 47.20 70.83 C49.07 71.88 50.93 73.91 52.80 75.93 C54.67 77.95 56.53 80.74 58.40 82.96 C60.27 85.18 62.13 87.68 64.00 89.25 C65.87 90.82 67.73 92.06 69.60 92.38 C71.47 92.70 73.33 92.22 75.20 91.17 C77.07 90.12 78.93 88.09 80.80 86.07 C82.67 84.05 84.53 81.26 86.40 79.04 C88.27 76.82 90.13 74.32 92.00 72.75 C93.87 71.18 95.73 69.94 97.60 69.62 C99.47 69.30 101.33 69.78 103.20 70.83 C105.07 71.88 106.93 73.91 108.80 75.93 C110.67 77.95 112.53 80.74 114.40 82.96 C116.27 85.18 119.07 88.20 120.00 89.25" fill="none" stroke="url(#sgWave)" stroke-width="6.0" stroke-linecap="round" opacity="0.9"/>
    <ellipse cx="64" cy="64" rx="21" ry="50" fill="none" stroke="url(#sgWave)" stroke-width="2.2" opacity=".4"/>
  </g>
  <circle cx="64" cy="64" r="50" fill="none" stroke="url(#sgRim)" stroke-width="2.8" opacity=".95"/>
</svg>
