<svg xmlns="http://www.w3.org/2000/svg" viewBox="0 0 360 300" width="360" height="300" role="img" aria-label="MercuryPitch">
  <defs>
    <radialGradient id="sgBg" cx="42%" cy="34%" r="76%">
      <stop offset="0" stop-color="#1c2634"/><stop offset="1" stop-color="#090d13"/>
    </radialGradient>
    <linearGradient id="sgWave" x1="0" y1="0" x2="1" y2="1">
      <stop offset="0" stop-color="#58a6ff"/><stop offset=".5" stop-color="#2dd4bf"/><stop offset="1" stop-color="#bc8cff"/>
    </linearGradient>
    <linearGradient id="sgRim" x1="0" y1="0" x2="1" y2="1">
      <stop offset="0" stop-color="#7cc0ff"/><stop offset=".5" stop-color="#4fe3d0"/><stop offset="1" stop-color="#cbacff"/>
    </linearGradient>
    <clipPath id="sgClip"><circle cx="64" cy="64" r="50"/></clipPath>
  </defs>
  <g transform="translate(98.00 26.00) scale(1.2812)"><circle cx="64" cy="64" r="50" fill="url(#sgBg)"/><g clip-path="url(#sgClip)"><path d="M8.00 43.00 C8.93 43.78 11.73 46.43 13.60 47.70 C15.47 48.97 17.33 50.12 19.20 50.61 C21.07 51.09 22.93 51.09 24.80 50.61 C26.67 50.12 28.53 48.97 30.40 47.70 C32.27 46.43 34.13 44.57 36.00 43.00 C37.87 41.43 39.73 39.57 41.60 38.30 C43.47 37.03 45.33 35.88 47.20 35.39 C49.07 34.91 50.93 34.91 52.80 35.39 C54.67 35.88 56.53 37.03 58.40 38.30 C60.27 39.57 62.13 41.43 64.00 43.00 C65.87 44.57 67.73 46.43 69.60 47.70 C71.47 48.97 73.33 50.12 75.20 50.61 C77.07 51.09 78.93 51.09 80.80 50.61 C82.67 50.12 84.53 48.97 86.40 47.70 C88.27 46.43 90.13 44.57 92.00 43.00 C93.87 41.43 95.73 39.57 97.60 38.30 C99.47 37.03 101.33 35.88 103.20 35.39 C105.07 34.91 106.93 34.91 108.80 35.39 C110.67 35.88 112.53 37.03 114.40 38.30 C116.27 39.57 119.07 42.22 120.00 43.00" fill="none" stroke="url(#sgWave)" stroke-width="3.2" stroke-linecap="round" opacity="0.55"/>
    <path d="M8.00 57.77 C8.93 58.66 11.73 61.92 13.60 63.13 C15.47 64.33 17.33 65.07 19.20 64.99 C21.07 64.92 22.93 63.99 24.80 62.66 C26.67 61.33 28.53 59.09 30.40 57.02 C32.27 54.95 34.13 52.25 36.00 50.23 C37.87 48.20 39.73 46.08 41.60 44.87 C43.47 43.67 45.33 42.93 47.20 43.01 C49.07 43.08 50.93 44.01 52.80 45.34 C54.67 46.67 56.53 48.91 58.40 50.98 C60.27 53.05 62.13 55.75 64.00 57.77 C65.87 59.80 67.73 61.92 69.60 63.13 C71.47 64.33 73.33 65.07 75.20 64.99 C77.07 64.92 78.93 63.99 80.80 62.66 C82.67 61.33 84.53 59.09 86.40 57.02 C88.27 54.95 90.13 52.25 92.00 50.23 C93.87 48.20 95.73 46.08 97.60 44.87 C99.47 43.67 101.33 42.93 103.20 43.01 C105.07 43.08 106.93 44.01 108.80 45.34 C110.67 46.67 112.53 48.91 114.40 50.98 C116.27 53.05 119.07 56.64 120.00 57.77" fill="none" stroke="url(#sgWave)" stroke-width="4.0" stroke-linecap="round" opacity="0.78"/>
    <path d="M8.00 72.37 C8.93 73.08 11.73 76.01 13.60 76.62 C15.47 77.23 17.33 77.00 19.20 76.04 C21.07 75.09 22.93 73.03 24.80 70.87 C26.67 68.71 28.53 65.61 30.40 63.07 C32.27 60.53 34.13 57.57 36.00 55.63 C37.87 53.68 39.73 51.99 41.60 51.38 C43.47 50.77 45.33 51.00 47.20 51.96 C49.07 52.91 50.93 54.97 52.80 57.13 C54.67 59.29 56.53 62.39 58.40 64.93 C60.27 67.47 62.13 70.43 64.00 72.37 C65.87 74.32 67.73 76.01 69.60 76.62 C71.47 77.23 73.33 77.00 75.20 76.04 C77.07 75.09 78.93 73.03 80.80 70.87 C82.67 68.71 84.53 65.61 86.40 63.07 C88.27 60.53 90.13 57.57 92.00 55.63 C93.87 53.68 95.73 51.99 97.60 51.38 C99.47 50.77 101.33 51.00 103.20 51.96 C105.07 52.91 106.93 54.97 108.80 57.13 C110.67 59.29 112.53 62.39 114.40 64.93 C116.27 67.47 119.07 71.13 120.00 72.37" fill="none" stroke="url(#sgWave)" stroke-width="5.2" stroke-linecap="round" opacity="1.0"/>
    <path d="M8.00 84.54 C8.93 84.77 11.73 86.17 13.60 85.94 C15.47 85.71 17.33 84.60 19.20 83.15 C21.07 81.71 22.93 79.37 24.80 77.26 C26.67 75.15 28.53 72.46 30.40 70.50 C32.27 68.53 34.13 66.53 36.00 65.46 C37.87 64.39 39.73 63.83 41.60 64.06 C43.47 64.29 45.33 65.40 47.20 66.85 C49.07 68.29 50.93 70.63 52.80 72.74 C54.67 74.85 56.53 77.54 58.40 79.50 C60.27 81.47 62.13 83.47 64.00 84.54 C65.87 85.61 67.73 86.17 69.60 85.94 C71.47 85.71 73.33 84.60 75.20 83.15 C77.07 81.71 78.93 79.37 80.80 77.26 C82.67 75.15 84.53 72.46 86.40 70.50 C88.27 68.53 90.13 66.53 92.00 65.46 C93.87 64.39 95.73 63.83 97.60 64.06 C99.47 64.29 101.33 65.40 103.20 66.85 C105.07 68.29 106.93 70.63 108.80 72.74 C110.67 74.85 112.53 77.54 114.40 79.50 C116.27 81.47 119.07 83.70 120.00 84.54" fill="none" stroke="url(#sgWave)" stroke-width="4.0" stroke-linecap="round" opacity="0.78"/>
    <path d="M8.00 93.88 C8.93 93.77 11.73 93.87 13.60 93.18 C15.47 92.48 17.33 91.12 19.20 89.73 C21.07 88.34 22.93 86.41 24.80 84.86 C26.67 83.31 28.53 81.54 30.40 80.42 C32.27 79.30 34.13 78.38 36.00 78.12 C37.87 77.85 39.73 78.13 41.60 78.82 C43.47 79.52 45.33 80.88 47.20 82.27 C49.07 83.66 50.93 85.59 52.80 87.14 C54.67 88.69 56.53 90.46 58.40 91.58 C60.27 92.70 62.13 93.62 64.00 93.88 C65.87 94.15 67.73 93.87 69.60 93.18 C71.47 92.48 73.33 91.12 75.20 89.73 C77.07 88.34 78.93 86.41 80.80 84.86 C82.67 83.31 84.53 81.54 86.40 80.42 C88.27 79.30 90.13 78.38 92.00 78.12 C93.87 77.85 95.73 78.13 97.60 78.82 C99.47 79.52 101.33 80.88 103.20 82.27 C105.07 83.66 106.93 85.59 108.80 87.14 C110.67 88.69 112.53 90.46 114.40 91.58 C116.27 92.70 119.07 93.50 120.00 93.88" fill="none" stroke="url(#sgWave)" stroke-width="3.2" stroke-linecap="round" opacity="0.55"/>
    <ellipse cx="64" cy="64" rx="20" ry="50" fill="none" stroke="url(#sgWave)" stroke-width="1.8" opacity=".38"/><ellipse cx="64" cy="64" rx="42" ry="50" fill="none" stroke="url(#sgWave)" stroke-width="1.4" opacity=".20"/></g><circle cx="64" cy="64" r="50" fill="none" stroke="url(#sgRim)" stroke-width="2.5" opacity=".95"/></g>
  <text x="180" y="252" text-anchor="middle" font-family="Outfit, 'Plus Jakarta Sans', sans-serif" font-weight="600" font-size="46" letter-spacing="-2">
    <tspan fill="#e6edf3">Mercury</tspan><tspan fill="url(#sgWave)">Pitch</tspan>
  </text>
  <text x="180" y="282" text-anchor="middle" font-family="Inter, sans-serif" font-weight="500" font-size="15" letter-spacing="3" fill="#6e7681">FIND YOUR PITCH</text>
</svg>
