{
  "asset": { "generator": "glTF-Transform v4.4.2", "version": "2.0" },
  "accessors": [
    {
      "type": "SCALAR",
      "componentType": 5123,
      "count": 672,
      "bufferView": 15,
      "byteOffset": 0
    },
    {
      "type": "SCALAR",
      "componentType": 5123,
      "count": 6744,
      "bufferView": 15,
      "byteOffset": 1344
    },
    {
      "type": "SCALAR",
      "componentType": 5123,
      "count": 42,
      "bufferView": 15,
      "byteOffset": 14832
    },
    {
      "type": "SCALAR",
      "componentType": 5123,
      "count": 42,
      "bufferView": 15,
      "byteOffset": 14916
    },
    {
      "type": "SCALAR",
      "componentType": 5123,
      "count": 42,
      "bufferView": 15,
      "byteOffset": 15000
    },
    {
      "type": "SCALAR",
      "componentType": 5123,
      "count": 42,
      "bufferView": 15,
      "byteOffset": 15084
    },
    {
      "type": "SCALAR",
      "componentType": 5123,
      "count": 42,
      "bufferView": 15,
      "byteOffset": 15168
    },
    {
      "type": "SCALAR",
      "componentType": 5123,
      "count": 42,
      "bufferView": 15,
      "byteOffset": 15252
    },
    {
      "type": "SCALAR",
      "componentType": 5123,
      "count": 432,
      "bufferView": 15,
      "byteOffset": 15336
    },
    {
      "type": "SCALAR",
      "componentType": 5125,
      "count": 1896768,
      "bufferView": 15,
      "byteOffset": 16200
    },
    {
      "type": "SCALAR",
      "componentType": 5123,
      "count": 564,
      "bufferView": 15,
      "byteOffset": 7603272
    },
    {
      "type": "SCALAR",
      "componentType": 5123,
      "count": 564,
      "bufferView": 15,
      "byteOffset": 7604400
    },
    {
      "type": "SCALAR",
      "componentType": 5125,
      "count": 436110,
      "bufferView": 15,
      "byteOffset": 7605528
    },
    {
      "type": "SCALAR",
      "componentType": 5123,
      "count": 564,
      "bufferView": 15,
      "byteOffset": 9349968
    },
    {
      "type": "SCALAR",
      "componentType": 5125,
      "count": 3769668,
      "bufferView": 15,
      "byteOffset": 9351096
    },
    {
      "type": "VEC3",
      "componentType": 5126,
      "count": 432,
      "max": [0.8999999761581421, 0.026000000536441803, 0.699999988079071],
      "min": [-0.8999999761581421, -0.0949999988079071, -0.699999988079071],
      "bufferView": 16,
      "byteOffset": 0
    },
    {
      "type": "VEC3",
      "componentType": 5126,
      "count": 432,
      "bufferView": 16,
      "byteOffset": 12
    },
    {
      "type": "VEC3",
      "componentType": 5126,
      "count": 1518,
      "max": [0.8500000238418579, 0, 0.6499999761581421],
      "min": [-0.8500000238418579, -0.08500000089406967, -0.6499999761581421],
      "bufferView": 17,
      "byteOffset": 0
    },
    {
      "type": "VEC3",
      "componentType": 5126,
      "count": 1518,
      "bufferView": 17,
      "byteOffset": 12
    },
    {
      "type": "VEC3",
      "componentType": 5126,
      "count": 30,
      "max": [0.3633333444595337, 0, 0.2266666740179062],
      "min": [-0.6466666460037231, -0.08500000089406967, -0.4533333480358124],
      "bufferView": 18,
      "byteOffset": 0
    },
    {
      "type": "VEC3",
      "componentType": 5126,
      "count": 30,
      "bufferView": 18,
      "byteOffset": 12
    },
    {
      "type": "VEC3",
      "componentType": 5126,
      "count": 30,
      "max": [0.4866666793823242, 0, 0.2266666740179062],
      "min": [-0.28333333134651184, -0.08500000089406967, -0.4533333480358124],
      "bufferView": 19,
      "byteOffset": 0
    },
    {
      "type": "VEC3",
      "componentType": 5126,
      "count": 30,
      "bufferView": 19,
      "byteOffset": 12
    },
    {
      "type": "VEC3",
      "componentType": 5126,
      "count": 30,
      "max": [0.2566666603088379, 0, 0.6600000262260437],
      "min": [-0.5133333206176758, -0.08500000089406967, -0.6399999856948853],
      "bufferView": 20,
      "byteOffset": 0
    },
    {
      "type": "VEC3",
      "componentType": 5126,
      "count": 30,
      "bufferView": 20,
      "byteOffset": 12
    },
    {
      "type": "VEC3",
      "componentType": 5126,
      "count": 30,
      "max": [0.6000000238418579, 0, 0.41333332657814026],
      "min": [-0.4300000071525574, -0.08500000089406967, -0.20666666328907013],
      "bufferView": 21,
      "byteOffset": 0
    },
    {
      "type": "VEC3",
      "componentType": 5126,
      "count": 30,
      "bufferView": 21,
      "byteOffset": 12
    },
    {
      "type": "VEC3",
      "componentType": 5126,
      "count": 30,
      "max": [0.39666667580604553, 0, 0.41333332657814026],
      "min": [-0.5333333611488342, -0.08500000089406967, -0.20666666328907013],
      "bufferView": 22,
      "byteOffset": 0
    },
    {
      "type": "VEC3",
      "componentType": 5126,
      "count": 30,
      "bufferView": 22,
      "byteOffset": 12
    },
    {
      "type": "VEC3",
      "componentType": 5126,
      "count": 30,
      "max": [0.6200000047683716, 0, 0.6600000262260437],
      "min": [-0.3100000023841858, -0.08500000089406967, -0.6399999856948853],
      "bufferView": 23,
      "byteOffset": 0
    },
    {
      "type": "VEC3",
      "componentType": 5126,
      "count": 30,
      "bufferView": 23,
      "byteOffset": 12
    },
    {
      "type": "VEC3",
      "componentType": 5126,
      "count": 111,
      "max": [0.8211776614189148, 0.015500001609325409, 0.6332394480705261],
      "min": [-0.8300626277923584, 0.0024999985471367836, -0.6235324740409851],
      "bufferView": 24,
      "byteOffset": 0
    },
    {
      "type": "VEC3",
      "componentType": 5126,
      "count": 111,
      "bufferView": 24,
      "byteOffset": 12
    },
    {
      "type": "VEC3",
      "componentType": 5122,
      "count": 340208,
      "max": [32767, 9145, 17682],
      "min": [-32767, -9145, -17682],
      "normalized": true,
      "bufferView": 25,
      "byteOffset": 0
    },
    {
      "type": "VEC3",
      "componentType": 5122,
      "count": 340208,
      "normalized": true,
      "bufferView": 25,
      "byteOffset": 8
    },
    {
      "type": "VEC2",
      "componentType": 5123,
      "count": 340208,
      "normalized": true,
      "bufferView": 25,
      "byteOffset": 16
    },
    {
      "type": "VEC4",
      "componentType": 5122,
      "count": 340208,
      "normalized": true,
      "bufferView": 25,
      "byteOffset": 20
    },
    {
      "type": "VEC3",
      "componentType": 5122,
      "count": 384,
      "max": [32767, 199, 357],
      "min": [-32767, -199, -357],
      "normalized": true,
      "bufferView": 26,
      "byteOffset": 0
    },
    {
      "type": "VEC3",
      "componentType": 5122,
      "count": 384,
      "normalized": true,
      "bufferView": 26,
      "byteOffset": 8
    },
    {
      "type": "VEC2",
      "componentType": 5123,
      "count": 384,
      "normalized": true,
      "bufferView": 26,
      "byteOffset": 16
    },
    {
      "type": "VEC4",
      "componentType": 5122,
      "count": 384,
      "normalized": true,
      "bufferView": 26,
      "byteOffset": 20
    },
    {
      "type": "VEC3",
      "componentType": 5122,
      "count": 384,
      "max": [699, 388, 32767],
      "min": [-699, -388, -32767],
      "normalized": true,
      "bufferView": 27,
      "byteOffset": 0
    },
    {
      "type": "VEC3",
      "componentType": 5122,
      "count": 384,
      "normalized": true,
      "bufferView": 27,
      "byteOffset": 8
    },
    {
      "type": "VEC2",
      "componentType": 5123,
      "count": 384,
      "normalized": true,
      "bufferView": 27,
      "byteOffset": 16
    },
    {
      "type": "VEC4",
      "componentType": 5122,
      "count": 384,
      "normalized": true,
      "bufferView": 27,
      "byteOffset": 20
    },
    {
      "type": "VEC4",
      "componentType": 5122,
      "count": 384,
      "normalized": true,
      "bufferView": 28,
      "byteOffset": 0
    },
    {
      "type": "VEC4",
      "componentType": 5122,
      "count": 384,
      "normalized": true,
      "bufferView": 29,
      "byteOffset": 0
    },
    {
      "type": "VEC3",
      "componentType": 5122,
      "count": 384,
      "max": [32767, 1349, 4704],
      "min": [-32767, -1349, -4704],
      "normalized": true,
      "bufferView": 30,
      "byteOffset": 0
    },
    {
      "type": "VEC3",
      "componentType": 5122,
      "count": 384,
      "normalized": true,
      "bufferView": 30,
      "byteOffset": 8
    },
    {
      "type": "VEC2",
      "componentType": 5123,
      "count": 384,
      "normalized": true,
      "bufferView": 30,
      "byteOffset": 16
    },
    {
      "type": "VEC4",
      "componentType": 5122,
      "count": 384,
      "normalized": true,
      "bufferView": 30,
      "byteOffset": 20
    },
    {
      "type": "VEC3",
      "componentType": 5122,
      "count": 384,
      "max": [1690, 2718, 32767],
      "min": [-1690, -2718, -32767],
      "normalized": true,
      "bufferView": 31,
      "byteOffset": 0
    },
    {
      "type": "VEC3",
      "componentType": 5122,
      "count": 384,
      "normalized": true,
      "bufferView": 31,
      "byteOffset": 8
    },
    {
      "type": "VEC2",
      "componentType": 5123,
      "count": 384,
      "normalized": true,
      "bufferView": 31,
      "byteOffset": 16
    },
    {
      "type": "VEC4",
      "componentType": 5122,
      "count": 384,
      "normalized": true,
      "bufferView": 31,
      "byteOffset": 20
    },
    {
      "type": "VEC4",
      "componentType": 5122,
      "count": 384,
      "normalized": true,
      "bufferView": 32,
      "byteOffset": 0
    },
    {
      "type": "VEC2",
      "componentType": 5123,
      "count": 384,
      "normalized": true,
      "bufferView": 33,
      "byteOffset": 0
    },
    {
      "type": "VEC4",
      "componentType": 5122,
      "count": 384,
      "normalized": true,
      "bufferView": 33,
      "byteOffset": 4
    },
    {
      "type": "VEC3",
      "componentType": 5122,
      "count": 384,
      "max": [32767, 270, 424],
      "min": [-32767, -270, -424],
      "normalized": true,
      "bufferView": 34,
      "byteOffset": 0
    },
    {
      "type": "VEC3",
      "componentType": 5122,
      "count": 384,
      "normalized": true,
      "bufferView": 34,
      "byteOffset": 8
    },
    {
      "type": "VEC2",
      "componentType": 5123,
      "count": 384,
      "normalized": true,
      "bufferView": 34,
      "byteOffset": 16
    },
    {
      "type": "VEC4",
      "componentType": 5122,
      "count": 384,
      "normalized": true,
      "bufferView": 34,
      "byteOffset": 20
    },
    {
      "type": "VEC3",
      "componentType": 5122,
      "count": 384,
      "max": [574, 365, 32767],
      "min": [-574, -365, -32767],
      "normalized": true,
      "bufferView": 35,
      "byteOffset": 0
    },
    {
      "type": "VEC3",
      "componentType": 5122,
      "count": 384,
      "normalized": true,
      "bufferView": 35,
      "byteOffset": 8
    },
    {
      "type": "VEC2",
      "componentType": 5123,
      "count": 384,
      "normalized": true,
      "bufferView": 35,
      "byteOffset": 16
    },
    {
      "type": "VEC4",
      "componentType": 5122,
      "count": 384,
      "normalized": true,
      "bufferView": 35,
      "byteOffset": 20
    },
    {
      "type": "VEC4",
      "componentType": 5122,
      "count": 384,
      "normalized": true,
      "bufferView": 36,
      "byteOffset": 0
    },
    {
      "type": "VEC3",
      "componentType": 5122,
      "count": 82144,
      "max": [32767, 5886, 15247],
      "min": [-32767, -5886, -15247],
      "normalized": true,
      "bufferView": 37,
      "byteOffset": 0
    },
    {
      "type": "VEC3",
      "componentType": 5122,
      "count": 82144,
      "normalized": true,
      "bufferView": 37,
      "byteOffset": 8
    },
    {
      "type": "VEC2",
      "componentType": 5123,
      "count": 82144,
      "normalized": true,
      "bufferView": 37,
      "byteOffset": 16
    },
    {
      "type": "VEC4",
      "componentType": 5122,
      "count": 82144,
      "normalized": true,
      "bufferView": 37,
      "byteOffset": 20
    },
    {
      "type": "VEC3",
      "componentType": 5122,
      "count": 384,
      "max": [32767, 199, 357],
      "min": [-32767, -199, -357],
      "normalized": true,
      "bufferView": 38,
      "byteOffset": 0
    },
    {
      "type": "VEC3",
      "componentType": 5122,
      "count": 384,
      "normalized": true,
      "bufferView": 38,
      "byteOffset": 8
    },
    {
      "type": "VEC2",
      "componentType": 5123,
      "count": 384,
      "normalized": true,
      "bufferView": 38,
      "byteOffset": 16
    },
    {
      "type": "VEC4",
      "componentType": 5122,
      "count": 384,
      "normalized": true,
      "bufferView": 38,
      "byteOffset": 20
    },
    {
      "type": "VEC4",
      "componentType": 5122,
      "count": 384,
      "normalized": true,
      "bufferView": 39,
      "byteOffset": 0
    },
    {
      "type": "VEC3",
      "componentType": 5122,
      "count": 384,
      "max": [32767, 1349, 5496],
      "min": [-32767, -1349, -5496],
      "normalized": true,
      "bufferView": 40,
      "byteOffset": 0
    },
    {
      "type": "VEC3",
      "componentType": 5122,
      "count": 384,
      "normalized": true,
      "bufferView": 40,
      "byteOffset": 8
    },
    {
      "type": "VEC2",
      "componentType": 5123,
      "count": 384,
      "normalized": true,
      "bufferView": 40,
      "byteOffset": 16
    },
    {
      "type": "VEC4",
      "componentType": 5122,
      "count": 384,
      "normalized": true,
      "bufferView": 40,
      "byteOffset": 20
    },
    {
      "type": "VEC3",
      "componentType": 5122,
      "count": 384,
      "max": [1075, 3011, 32767],
      "min": [-1075, -3011, -32767],
      "normalized": true,
      "bufferView": 41,
      "byteOffset": 0
    },
    {
      "type": "VEC3",
      "componentType": 5122,
      "count": 384,
      "normalized": true,
      "bufferView": 41,
      "byteOffset": 8
    },
    {
      "type": "VEC2",
      "componentType": 5123,
      "count": 384,
      "normalized": true,
      "bufferView": 41,
      "byteOffset": 16
    },
    {
      "type": "VEC4",
      "componentType": 5122,
      "count": 384,
      "normalized": true,
      "bufferView": 41,
      "byteOffset": 20
    },
    {
      "type": "VEC4",
      "componentType": 5122,
      "count": 384,
      "normalized": true,
      "bufferView": 42,
      "byteOffset": 0
    },
    {
      "type": "VEC4",
      "componentType": 5122,
      "count": 384,
      "normalized": true,
      "bufferView": 43,
      "byteOffset": 0
    },
    {
      "type": "VEC3",
      "componentType": 5122,
      "count": 384,
      "max": [32767, 270, 424],
      "min": [-32767, -270, -424],
      "normalized": true,
      "bufferView": 44,
      "byteOffset": 0
    },
    {
      "type": "VEC3",
      "componentType": 5122,
      "count": 384,
      "normalized": true,
      "bufferView": 44,
      "byteOffset": 8
    },
    {
      "type": "VEC2",
      "componentType": 5123,
      "count": 384,
      "normalized": true,
      "bufferView": 44,
      "byteOffset": 16
    },
    {
      "type": "VEC4",
      "componentType": 5122,
      "count": 384,
      "normalized": true,
      "bufferView": 44,
      "byteOffset": 20
    },
    {
      "type": "VEC3",
      "componentType": 5122,
      "count": 384,
      "max": [574, 365, 32767],
      "min": [-574, -365, -32767],
      "normalized": true,
      "bufferView": 45,
      "byteOffset": 0
    },
    {
      "type": "VEC3",
      "componentType": 5122,
      "count": 384,
      "normalized": true,
      "bufferView": 45,
      "byteOffset": 8
    },
    {
      "type": "VEC2",
      "componentType": 5123,
      "count": 384,
      "normalized": true,
      "bufferView": 45,
      "byteOffset": 16
    },
    {
      "type": "VEC4",
      "componentType": 5122,
      "count": 384,
      "normalized": true,
      "bufferView": 45,
      "byteOffset": 20
    },
    {
      "type": "VEC4",
      "componentType": 5122,
      "count": 384,
      "normalized": true,
      "bufferView": 46,
      "byteOffset": 0
    },
    {
      "type": "VEC4",
      "componentType": 5122,
      "count": 384,
      "normalized": true,
      "bufferView": 47,
      "byteOffset": 0
    },
    {
      "type": "VEC3",
      "componentType": 5122,
      "count": 703128,
      "max": [32767, 10406, 25463],
      "min": [-32767, -10406, -25463],
      "normalized": true,
      "bufferView": 48,
      "byteOffset": 0
    },
    {
      "type": "VEC3",
      "componentType": 5122,
      "count": 703128,
      "normalized": true,
      "bufferView": 48,
      "byteOffset": 8
    },
    {
      "type": "VEC2",
      "componentType": 5123,
      "count": 703128,
      "normalized": true,
      "bufferView": 48,
      "byteOffset": 16
    },
    {
      "type": "VEC4",
      "componentType": 5122,
      "count": 703128,
      "normalized": true,
      "bufferView": 48,
      "byteOffset": 20
    }
  ],
  "bufferViews": [
    { "buffer": 2, "byteOffset": 19687584, "byteLength": 135702 },
    { "buffer": 2, "byteOffset": 19823288, "byteLength": 3697524 },
    { "buffer": 3, "byteOffset": 0, "byteLength": 4481282 },
    { "buffer": 3, "byteOffset": 4481284, "byteLength": 1140162 },
    { "buffer": 3, "byteOffset": 5621448, "byteLength": 132230 },
    { "buffer": 3, "byteOffset": 5753680, "byteLength": 31234 },
    { "buffer": 3, "byteOffset": 5784916, "byteLength": 188104 },
    { "buffer": 3, "byteOffset": 5973020, "byteLength": 3270906 },
    { "buffer": 3, "byteOffset": 9243928, "byteLength": 4119166 },
    { "buffer": 3, "byteOffset": 13363096, "byteLength": 1009368 },
    { "buffer": 3, "byteOffset": 14372464, "byteLength": 134974 },
    { "buffer": 3, "byteOffset": 14507440, "byteLength": 39352 },
    { "buffer": 3, "byteOffset": 14546792, "byteLength": 819500 },
    { "buffer": 3, "byteOffset": 15366292, "byteLength": 1350790 },
    { "buffer": 3, "byteOffset": 16717084, "byteLength": 676014 },
    { "buffer": 0, "byteOffset": 0, "byteLength": 24429768, "target": 34963 },
    {
      "buffer": 0,
      "byteOffset": 24429768,
      "byteLength": 10368,
      "byteStride": 24,
      "target": 34962
    },
    {
      "buffer": 0,
      "byteOffset": 24440136,
      "byteLength": 36432,
      "byteStride": 24,
      "target": 34962
    },
    {
      "buffer": 0,
      "byteOffset": 24476568,
      "byteLength": 720,
      "byteStride": 24,
      "target": 34962
    },
    {
      "buffer": 0,
      "byteOffset": 24477288,
      "byteLength": 720,
      "byteStride": 24,
      "target": 34962
    },
    {
      "buffer": 0,
      "byteOffset": 24478008,
      "byteLength": 720,
      "byteStride": 24,
      "target": 34962
    },
    {
      "buffer": 0,
      "byteOffset": 24478728,
      "byteLength": 720,
      "byteStride": 24,
      "target": 34962
    },
    {
      "buffer": 0,
      "byteOffset": 24479448,
      "byteLength": 720,
      "byteStride": 24,
      "target": 34962
    },
    {
      "buffer": 0,
      "byteOffset": 24480168,
      "byteLength": 720,
      "byteStride": 24,
      "target": 34962
    },
    {
      "buffer": 0,
      "byteOffset": 24480888,
      "byteLength": 2664,
      "byteStride": 24,
      "target": 34962
    },
    {
      "buffer": 1,
      "byteOffset": 0,
      "byteLength": 9525824,
      "byteStride": 28,
      "target": 34962
    },
    {
      "buffer": 1,
      "byteOffset": 9525824,
      "byteLength": 10752,
      "byteStride": 28,
      "target": 34962
    },
    {
      "buffer": 1,
      "byteOffset": 9536576,
      "byteLength": 10752,
      "byteStride": 28,
      "target": 34962
    },
    {
      "buffer": 1,
      "byteOffset": 9547328,
      "byteLength": 3072,
      "byteStride": 8,
      "target": 34962
    },
    {
      "buffer": 1,
      "byteOffset": 9550400,
      "byteLength": 3072,
      "byteStride": 8,
      "target": 34962
    },
    {
      "buffer": 1,
      "byteOffset": 9553472,
      "byteLength": 10752,
      "byteStride": 28,
      "target": 34962
    },
    {
      "buffer": 1,
      "byteOffset": 9564224,
      "byteLength": 10752,
      "byteStride": 28,
      "target": 34962
    },
    {
      "buffer": 1,
      "byteOffset": 9574976,
      "byteLength": 3072,
      "byteStride": 8,
      "target": 34962
    },
    {
      "buffer": 1,
      "byteOffset": 9578048,
      "byteLength": 4608,
      "byteStride": 12,
      "target": 34962
    },
    {
      "buffer": 1,
      "byteOffset": 9582656,
      "byteLength": 10752,
      "byteStride": 28,
      "target": 34962
    },
    {
      "buffer": 1,
      "byteOffset": 9593408,
      "byteLength": 10752,
      "byteStride": 28,
      "target": 34962
    },
    {
      "buffer": 1,
      "byteOffset": 9604160,
      "byteLength": 3072,
      "byteStride": 8,
      "target": 34962
    },
    {
      "buffer": 1,
      "byteOffset": 9607232,
      "byteLength": 2300032,
      "byteStride": 28,
      "target": 34962
    },
    {
      "buffer": 1,
      "byteOffset": 11907264,
      "byteLength": 10752,
      "byteStride": 28,
      "target": 34962
    },
    {
      "buffer": 1,
      "byteOffset": 11918016,
      "byteLength": 3072,
      "byteStride": 8,
      "target": 34962
    },
    {
      "buffer": 1,
      "byteOffset": 11921088,
      "byteLength": 10752,
      "byteStride": 28,
      "target": 34962
    },
    {
      "buffer": 1,
      "byteOffset": 11931840,
      "byteLength": 10752,
      "byteStride": 28,
      "target": 34962
    },
    {
      "buffer": 1,
      "byteOffset": 11942592,
      "byteLength": 3072,
      "byteStride": 8,
      "target": 34962
    },
    {
      "buffer": 1,
      "byteOffset": 11945664,
      "byteLength": 3072,
      "byteStride": 8,
      "target": 34962
    },
    {
      "buffer": 1,
      "byteOffset": 11948736,
      "byteLength": 10752,
      "byteStride": 28,
      "target": 34962
    },
    {
      "buffer": 1,
      "byteOffset": 11959488,
      "byteLength": 10752,
      "byteStride": 28,
      "target": 34962
    },
    {
      "buffer": 1,
      "byteOffset": 11970240,
      "byteLength": 3072,
      "byteStride": 8,
      "target": 34962
    },
    {
      "buffer": 1,
      "byteOffset": 11973312,
      "byteLength": 3072,
      "byteStride": 8,
      "target": 34962
    },
    {
      "buffer": 2,
      "byteOffset": 0,
      "byteLength": 19687584,
      "byteStride": 28,
      "target": 34962
    }
  ],
  "samplers": [
    { "magFilter": 9729, "minFilter": 9987, "wrapS": 10497, "wrapT": 10497 }
  ],
  "textures": [
    { "sampler": 0, "extensions": { "EXT_texture_webp": { "source": 2 } } },
    { "sampler": 0, "extensions": { "EXT_texture_webp": { "source": 1 } } },
    { "sampler": 0, "extensions": { "EXT_texture_webp": { "source": 3 } } },
    { "sampler": 0, "extensions": { "EXT_texture_webp": { "source": 5 } } },
    { "sampler": 0, "extensions": { "EXT_texture_webp": { "source": 4 } } },
    { "sampler": 0, "extensions": { "EXT_texture_webp": { "source": 8 } } },
    { "sampler": 0, "extensions": { "EXT_texture_webp": { "source": 7 } } },
    { "sampler": 0, "extensions": { "EXT_texture_webp": { "source": 9 } } },
    { "sampler": 0, "extensions": { "EXT_texture_webp": { "source": 11 } } },
    { "sampler": 0, "extensions": { "EXT_texture_webp": { "source": 10 } } },
    { "sampler": 0, "extensions": { "EXT_texture_webp": { "source": 13 } } },
    { "sampler": 0, "extensions": { "EXT_texture_webp": { "source": 12 } } },
    { "sampler": 0, "extensions": { "EXT_texture_webp": { "source": 14 } } },
    { "sampler": 0, "extensions": { "EXT_texture_webp": { "source": 0 } } },
    { "sampler": 0, "extensions": { "EXT_texture_webp": { "source": 6 } } }
  ],
  "images": [
    {
      "name": "frost-transmission-2k",
      "mimeType": "image/webp",
      "bufferView": 0
    },
    { "name": "set-0-normal", "mimeType": "image/webp", "bufferView": 1 },
    { "name": "set-0-base_color", "mimeType": "image/webp", "bufferView": 2 },
    {
      "name": "frost-metallic-2k-frost-roughness-2k",
      "mimeType": "image/webp",
      "bufferView": 3
    },
    {
      "name": "frost-frame-normal-1k",
      "mimeType": "image/webp",
      "bufferView": 4
    },
    {
      "name": "frost-frame-base-1k",
      "mimeType": "image/webp",
      "bufferView": 5
    },
    {
      "name": "glide-transmission-2k",
      "mimeType": "image/webp",
      "bufferView": 6
    },
    { "name": "set-0-normal", "mimeType": "image/webp", "bufferView": 7 },
    { "name": "set-0-base_color", "mimeType": "image/webp", "bufferView": 8 },
    {
      "name": "glide-metallic-2k-glide-roughness-2k",
      "mimeType": "image/webp",
      "bufferView": 9
    },
    {
      "name": "glide-frame-normal-1k",
      "mimeType": "image/webp",
      "bufferView": 10
    },
    {
      "name": "glide-frame-base-1k",
      "mimeType": "image/webp",
      "bufferView": 11
    },
    {
      "name": "cloudway-marble-v7-normal-1k",
      "mimeType": "image/webp",
      "bufferView": 12
    },
    {
      "name": "cloudway-marble-v7-base-1k",
      "mimeType": "image/webp",
      "bufferView": 13
    },
    {
      "name": "cloudway-marble-v7-orm-1k",
      "mimeType": "image/webp",
      "bufferView": 14
    }
  ],
  "buffers": [
    { "uri": "cloudway-platform-kit-v7-part-01.bin", "byteLength": 24483552 },
    { "uri": "cloudway-platform-kit-v7-part-02.bin", "byteLength": 11976384 },
    { "uri": "cloudway-platform-kit-v7-part-03.bin", "byteLength": 23520812 },
    { "uri": "cloudway-platform-kit-v7-part-04.bin", "byteLength": 17393098 }
  ],
  "materials": [
    {
      "name": "Cloudway_Shared_Gold",
      "doubleSided": true,
      "pbrMetallicRoughness": {
        "baseColorFactor": [
          0.7599999904632568, 0.44999998807907104, 0.12999999523162842, 1
        ],
        "roughnessFactor": 0.20000000298023224,
        "metallicFactor": 0.8600000143051147
      }
    },
    {
      "name": "Cloudway_Shared_RoseCrystal",
      "doubleSided": true,
      "pbrMetallicRoughness": {
        "baseColorFactor": [
          0.46000000834465027, 0.054999999701976776, 0.10499999672174454, 1
        ],
        "roughnessFactor": 0.2199999988079071,
        "metallicFactor": 0.03999999910593033
      }
    },
    {
      "name": "Cloudway_Crackle_Glow",
      "doubleSided": true,
      "pbrMetallicRoughness": {
        "baseColorFactor": [1, 0.5, 0.23999999463558197, 1],
        "roughnessFactor": 0.18000000715255737,
        "metallicFactor": 0.05000000074505806
      },
      "emissiveFactor": [1, 0.1599999964237213, 0.03999999910593033],
      "extensions": {
        "KHR_materials_emissive_strength": {
          "emissiveStrength": 1.399999976158142
        }
      }
    },
    {
      "name": "frost_opaque_gold_boundary",
      "extras": { "opaque": true },
      "doubleSided": true,
      "pbrMetallicRoughness": {
        "baseColorFactor": [
          0.8199999928474426, 0.4699999988079071, 0.10999999940395355, 1
        ],
        "roughnessFactor": 0.23000000417232513,
        "metallicFactor": 0.9399999976158142
      },
      "extensions": {
        "KHR_materials_clearcoat": {
          "clearcoatFactor": 0.2199999988079071,
          "clearcoatRoughnessFactor": 0
        }
      }
    },
    {
      "name": "frost_glass_ice_gold",
      "extras": {
        "regionStrategy": "texture-space gold opacity and metallic response",
        "goldOpaque": true,
        "glassIceTransmissive": true
      },
      "pbrMetallicRoughness": {
        "baseColorTexture": { "index": 0 },
        "metallicRoughnessTexture": { "index": 2 }
      },
      "normalTexture": { "index": 1, "scale": 0.7200000286102295 },
      "extensions": {
        "KHR_materials_clearcoat": {
          "clearcoatFactor": 0.18000000715255737,
          "clearcoatRoughnessFactor": 0.12999999523162842
        },
        "KHR_materials_ior": { "ior": 1.309999942779541 },
        "KHR_materials_transmission": {
          "transmissionFactor": 1,
          "transmissionTexture": { "index": 13 }
        },
        "KHR_materials_volume": {
          "thicknessFactor": 0.038888890084661114,
          "attenuationDistance": 1.9230769936149668,
          "attenuationColor": [
            0.41999998688697815, 0.8100000023841858, 0.9599999785423279
          ]
        }
      }
    },
    {
      "name": "frost_landing_glass",
      "pbrMetallicRoughness": {
        "roughnessFactor": 0.17000000178813934,
        "metallicFactor": 0,
        "baseColorTexture": { "index": 3 }
      },
      "normalTexture": { "index": 4, "scale": 0.41999998688697815 },
      "extensions": {
        "KHR_materials_clearcoat": {
          "clearcoatFactor": 0.25999999046325684,
          "clearcoatRoughnessFactor": 0.10000000149011612
        },
        "KHR_materials_ior": { "ior": 1.309999942779541 },
        "KHR_materials_transmission": {
          "transmissionFactor": 0.9399999976158142
        },
        "KHR_materials_volume": {
          "thicknessFactor": 0.08235293921714841,
          "attenuationDistance": 2.4654831657295637,
          "attenuationColor": [
            0.41999998688697815, 0.8100000023841858, 0.9599999785423279
          ]
        }
      }
    },
    {
      "name": "frost_landing_glass",
      "pbrMetallicRoughness": {
        "roughnessFactor": 0.17000000178813934,
        "metallicFactor": 0,
        "baseColorTexture": { "index": 3 }
      },
      "normalTexture": { "index": 4, "scale": 0.41999998688697815 },
      "extensions": {
        "KHR_materials_clearcoat": {
          "clearcoatFactor": 0.25999999046325684,
          "clearcoatRoughnessFactor": 0.10000000149011612
        },
        "KHR_materials_ior": { "ior": 1.309999942779541 },
        "KHR_materials_transmission": {
          "transmissionFactor": 0.9399999976158142
        },
        "KHR_materials_volume": {
          "thicknessFactor": 0.16589146106953054,
          "attenuationDistance": 2.4654831657295637,
          "attenuationColor": [
            0.41999998688697815, 0.8100000023841858, 0.9599999785423279
          ]
        }
      }
    },
    {
      "name": "glide_opaque_gold_boundary",
      "extras": { "opaque": true },
      "doubleSided": true,
      "pbrMetallicRoughness": {
        "baseColorFactor": [
          0.8199999928474426, 0.4699999988079071, 0.10999999940395355, 1
        ],
        "roughnessFactor": 0.23000000417232513,
        "metallicFactor": 0.9399999976158142
      },
      "extensions": {
        "KHR_materials_clearcoat": {
          "clearcoatFactor": 0.2199999988079071,
          "clearcoatRoughnessFactor": 0
        }
      }
    },
    {
      "name": "glide_glass_ice_gold",
      "extras": {
        "regionStrategy": "texture-space gold opacity and metallic response",
        "goldOpaque": true,
        "glassIceTransmissive": true
      },
      "pbrMetallicRoughness": {
        "baseColorTexture": { "index": 5 },
        "metallicRoughnessTexture": { "index": 7 }
      },
      "normalTexture": { "index": 6, "scale": 0.6399999856948853 },
      "extensions": {
        "KHR_materials_clearcoat": {
          "clearcoatFactor": 0.18000000715255737,
          "clearcoatRoughnessFactor": 0.12999999523162842
        },
        "KHR_materials_ior": { "ior": 1.4600000381469727 },
        "KHR_materials_transmission": {
          "transmissionFactor": 1,
          "transmissionTexture": { "index": 14 }
        },
        "KHR_materials_volume": {
          "thicknessFactor": 0.038888890084661114,
          "attenuationDistance": 1.4285714528998554,
          "attenuationColor": [0.3199999928474426, 0.75, 0.6100000143051147]
        }
      }
    },
    {
      "name": "glide_landing_glass",
      "pbrMetallicRoughness": {
        "roughnessFactor": 0.14000000059604645,
        "metallicFactor": 0,
        "baseColorTexture": { "index": 8 }
      },
      "normalTexture": { "index": 9, "scale": 0.41999998688697815 },
      "extensions": {
        "KHR_materials_clearcoat": {
          "clearcoatFactor": 0.25999999046325684,
          "clearcoatRoughnessFactor": 0.10000000149011612
        },
        "KHR_materials_ior": { "ior": 1.4600000381469727 },
        "KHR_materials_transmission": {
          "transmissionFactor": 0.9100000262260437
        },
        "KHR_materials_volume": {
          "thicknessFactor": 0.08235293921714841,
          "attenuationDistance": 1.831501818705815,
          "attenuationColor": [0.3199999928474426, 0.75, 0.6100000143051147]
        }
      }
    },
    {
      "name": "glide_landing_glass",
      "pbrMetallicRoughness": {
        "roughnessFactor": 0.14000000059604645,
        "metallicFactor": 0,
        "baseColorTexture": { "index": 8 }
      },
      "normalTexture": { "index": 9, "scale": 0.41999998688697815 },
      "extensions": {
        "KHR_materials_clearcoat": {
          "clearcoatFactor": 0.25999999046325684,
          "clearcoatRoughnessFactor": 0.10000000149011612
        },
        "KHR_materials_ior": { "ior": 1.4600000381469727 },
        "KHR_materials_transmission": {
          "transmissionFactor": 0.9100000262260437
        },
        "KHR_materials_volume": {
          "thicknessFactor": 0.18380107142222735,
          "attenuationDistance": 1.831501818705815,
          "attenuationColor": [0.3199999928474426, 0.75, 0.6100000143051147]
        }
      }
    },
    {
      "name": "Cloudway Marble V7 Runtime 1K",
      "extras": { "opaqueMarble": true, "providerMapped": true },
      "doubleSided": true,
      "pbrMetallicRoughness": {
        "baseColorTexture": { "index": 10 },
        "metallicRoughnessTexture": { "index": 12 }
      },
      "normalTexture": { "index": 11, "scale": 0.8199999928474426 },
      "extensions": {
        "KHR_materials_clearcoat": {
          "clearcoatFactor": 0.1599999964237213,
          "clearcoatRoughnessFactor": 0.18000000715255737
        }
      }
    }
  ],
  "meshes": [
    {
      "name": "Cloudway_Crackle_Intact__FrameGold__Mesh",
      "primitives": [
        {
          "attributes": { "POSITION": 15, "NORMAL": 16 },
          "mode": 4,
          "material": 0,
          "indices": 0
        }
      ]
    },
    {
      "name": "Cloudway_Crackle_Intact__Slab__Mesh",
      "primitives": [
        {
          "attributes": { "POSITION": 17, "NORMAL": 18 },
          "mode": 4,
          "material": 1,
          "indices": 1
        }
      ]
    },
    {
      "name": "Cloudway_Crackle_Release__Shard_01__Mesh",
      "primitives": [
        {
          "attributes": { "POSITION": 19, "NORMAL": 20 },
          "mode": 4,
          "material": 1,
          "indices": 2
        }
      ]
    },
    {
      "name": "Cloudway_Crackle_Release__Shard_02__Mesh",
      "primitives": [
        {
          "attributes": { "POSITION": 21, "NORMAL": 22 },
          "mode": 4,
          "material": 1,
          "indices": 3
        }
      ]
    },
    {
      "name": "Cloudway_Crackle_Release__Shard_03__Mesh",
      "primitives": [
        {
          "attributes": { "POSITION": 23, "NORMAL": 24 },
          "mode": 4,
          "material": 1,
          "indices": 4
        }
      ]
    },
    {
      "name": "Cloudway_Crackle_Release__Shard_04__Mesh",
      "primitives": [
        {
          "attributes": { "POSITION": 25, "NORMAL": 26 },
          "mode": 4,
          "material": 1,
          "indices": 5
        }
      ]
    },
    {
      "name": "Cloudway_Crackle_Release__Shard_05__Mesh",
      "primitives": [
        {
          "attributes": { "POSITION": 27, "NORMAL": 28 },
          "mode": 4,
          "material": 1,
          "indices": 6
        }
      ]
    },
    {
      "name": "Cloudway_Crackle_Release__Shard_06__Mesh",
      "primitives": [
        {
          "attributes": { "POSITION": 29, "NORMAL": 30 },
          "mode": 4,
          "material": 1,
          "indices": 7
        }
      ]
    },
    {
      "name": "Cloudway_Crackle_Warning__CrackGlow__Mesh",
      "primitives": [
        {
          "attributes": { "POSITION": 31, "NORMAL": 32 },
          "mode": 4,
          "material": 2,
          "indices": 8
        }
      ]
    },
    {
      "name": "frost_dense_donor_mesh",
      "primitives": [
        {
          "attributes": {
            "POSITION": 33,
            "NORMAL": 34,
            "TEXCOORD_0": 35,
            "TANGENT": 36
          },
          "mode": 4,
          "material": 4,
          "indices": 9
        }
      ]
    },
    {
      "name": "frost_donor_seam_front_mesh",
      "primitives": [
        {
          "attributes": {
            "POSITION": 37,
            "NORMAL": 38,
            "TEXCOORD_0": 39,
            "TANGENT": 40
          },
          "mode": 4,
          "material": 3,
          "indices": 10
        }
      ]
    },
    {
      "name": "frost_donor_seam_left_mesh",
      "primitives": [
        {
          "attributes": {
            "POSITION": 41,
            "NORMAL": 42,
            "TEXCOORD_0": 43,
            "TANGENT": 44
          },
          "mode": 4,
          "material": 3,
          "indices": 11
        }
      ]
    },
    {
      "name": "frost_donor_seam_rear_mesh",
      "primitives": [
        {
          "attributes": {
            "TANGENT": 45,
            "TEXCOORD_0": 39,
            "POSITION": 37,
            "NORMAL": 38
          },
          "mode": 4,
          "material": 3,
          "indices": 10
        }
      ]
    },
    {
      "name": "frost_donor_seam_right_mesh",
      "primitives": [
        {
          "attributes": {
            "TANGENT": 46,
            "TEXCOORD_0": 43,
            "POSITION": 41,
            "NORMAL": 42
          },
          "mode": 4,
          "material": 3,
          "indices": 11
        }
      ]
    },
    {
      "name": "frost_landing_front_mesh",
      "primitives": [
        {
          "attributes": {
            "POSITION": 47,
            "NORMAL": 48,
            "TEXCOORD_0": 49,
            "TANGENT": 50
          },
          "mode": 4,
          "material": 5,
          "indices": 10
        }
      ]
    },
    {
      "name": "frost_landing_left_mesh",
      "primitives": [
        {
          "attributes": {
            "POSITION": 51,
            "NORMAL": 52,
            "TEXCOORD_0": 53,
            "TANGENT": 54
          },
          "mode": 4,
          "material": 6,
          "indices": 10
        }
      ]
    },
    {
      "name": "frost_landing_rear_mesh",
      "primitives": [
        {
          "attributes": {
            "TANGENT": 55,
            "TEXCOORD_0": 49,
            "POSITION": 47,
            "NORMAL": 48
          },
          "mode": 4,
          "material": 5,
          "indices": 10
        }
      ]
    },
    {
      "name": "frost_landing_right_mesh",
      "primitives": [
        {
          "attributes": {
            "TEXCOORD_0": 56,
            "TANGENT": 57,
            "POSITION": 51,
            "NORMAL": 52
          },
          "mode": 4,
          "material": 6,
          "indices": 10
        }
      ]
    },
    {
      "name": "frost_outer_gold_front_mesh",
      "primitives": [
        {
          "attributes": {
            "POSITION": 58,
            "NORMAL": 59,
            "TEXCOORD_0": 60,
            "TANGENT": 61
          },
          "mode": 4,
          "material": 3,
          "indices": 10
        }
      ]
    },
    {
      "name": "frost_outer_gold_left_mesh",
      "primitives": [
        {
          "attributes": {
            "POSITION": 62,
            "NORMAL": 63,
            "TEXCOORD_0": 64,
            "TANGENT": 65
          },
          "mode": 4,
          "material": 3,
          "indices": 10
        }
      ]
    },
    {
      "name": "frost_outer_gold_rear_mesh",
      "primitives": [
        {
          "attributes": {
            "TEXCOORD_0": 60,
            "POSITION": 58,
            "NORMAL": 59,
            "TANGENT": 61
          },
          "mode": 4,
          "material": 3,
          "indices": 10
        }
      ]
    },
    {
      "name": "frost_outer_gold_right_mesh",
      "primitives": [
        {
          "attributes": {
            "TANGENT": 66,
            "TEXCOORD_0": 64,
            "POSITION": 62,
            "NORMAL": 63
          },
          "mode": 4,
          "material": 3,
          "indices": 10
        }
      ]
    },
    {
      "name": "glide_dense_donor_mesh",
      "primitives": [
        {
          "attributes": {
            "POSITION": 67,
            "NORMAL": 68,
            "TEXCOORD_0": 69,
            "TANGENT": 70
          },
          "mode": 4,
          "material": 8,
          "indices": 12
        }
      ]
    },
    {
      "name": "glide_donor_seam_front_mesh",
      "primitives": [
        {
          "attributes": {
            "POSITION": 71,
            "NORMAL": 72,
            "TEXCOORD_0": 73,
            "TANGENT": 74
          },
          "mode": 4,
          "material": 7,
          "indices": 13
        }
      ]
    },
    {
      "name": "glide_donor_seam_rear_mesh",
      "primitives": [
        {
          "attributes": {
            "TANGENT": 75,
            "TEXCOORD_0": 73,
            "POSITION": 71,
            "NORMAL": 72
          },
          "mode": 4,
          "material": 7,
          "indices": 13
        }
      ]
    },
    {
      "name": "glide_landing_front_mesh",
      "primitives": [
        {
          "attributes": {
            "POSITION": 76,
            "NORMAL": 77,
            "TEXCOORD_0": 78,
            "TANGENT": 79
          },
          "mode": 4,
          "material": 9,
          "indices": 13
        }
      ]
    },
    {
      "name": "glide_landing_left_mesh",
      "primitives": [
        {
          "attributes": {
            "POSITION": 80,
            "NORMAL": 81,
            "TEXCOORD_0": 82,
            "TANGENT": 83
          },
          "mode": 4,
          "material": 10,
          "indices": 13
        }
      ]
    },
    {
      "name": "glide_landing_rear_mesh",
      "primitives": [
        {
          "attributes": {
            "TANGENT": 84,
            "TEXCOORD_0": 78,
            "POSITION": 76,
            "NORMAL": 77
          },
          "mode": 4,
          "material": 9,
          "indices": 13
        }
      ]
    },
    {
      "name": "glide_landing_right_mesh",
      "primitives": [
        {
          "attributes": {
            "TANGENT": 85,
            "TEXCOORD_0": 82,
            "POSITION": 80,
            "NORMAL": 81
          },
          "mode": 4,
          "material": 10,
          "indices": 13
        }
      ]
    },
    {
      "name": "glide_outer_gold_front_mesh",
      "primitives": [
        {
          "attributes": {
            "POSITION": 86,
            "NORMAL": 87,
            "TEXCOORD_0": 88,
            "TANGENT": 89
          },
          "mode": 4,
          "material": 7,
          "indices": 13
        }
      ]
    },
    {
      "name": "glide_outer_gold_left_mesh",
      "primitives": [
        {
          "attributes": {
            "POSITION": 90,
            "NORMAL": 91,
            "TEXCOORD_0": 92,
            "TANGENT": 93
          },
          "mode": 4,
          "material": 7,
          "indices": 13
        }
      ]
    },
    {
      "name": "glide_outer_gold_rear_mesh",
      "primitives": [
        {
          "attributes": {
            "TANGENT": 94,
            "TEXCOORD_0": 88,
            "POSITION": 86,
            "NORMAL": 87
          },
          "mode": 4,
          "material": 7,
          "indices": 13
        }
      ]
    },
    {
      "name": "glide_outer_gold_right_mesh",
      "primitives": [
        {
          "attributes": {
            "TANGENT": 95,
            "TEXCOORD_0": 92,
            "POSITION": 90,
            "NORMAL": 91
          },
          "mode": 4,
          "material": 7,
          "indices": 13
        }
      ]
    },
    {
      "name": "marble_dense_source_preserved__Mesh",
      "primitives": [
        {
          "attributes": {
            "POSITION": 96,
            "NORMAL": 97,
            "TEXCOORD_0": 98,
            "TANGENT": 99
          },
          "mode": 4,
          "material": 11,
          "indices": 14
        }
      ]
    }
  ],
  "nodes": [
    { "name": "Cloudway_Crackle_Intact__FrameGold", "mesh": 0 },
    { "name": "Cloudway_Crackle_Intact__Slab", "mesh": 1 },
    {
      "name": "Cloudway_Crackle_Intact",
      "extras": {
        "assetId": "cloudway-platform-kit-v3-review",
        "platformFamily": "crackle_intact",
        "state": "intact",
        "units": "metres",
        "upAxis": "+Y",
        "origin": "top-centre of sampled donor landing datum",
        "landingPlaneY": 0,
        "landing_json": "{\"min\":[-0.85,0.0,-0.65],\"max\":[0.85,0.0,0.65],\"width\":1.7,\"depth\":1.3,\"edgeSemantics\":\"exact gold boundary marks gameplay support; original donor UV/PBR surface remains visible at the landing datum\"}",
        "collider_json": "{\"shape\":\"box\",\"width\":1.7,\"depth\":1.3,\"height\":0.24,\"topY\":0.0,\"center\":[0.0,-0.12,0.0]}",
        "visual_bounds_json": "{\"min\":[-0.8999999761581421,-0.0949999988079071,-0.699999988079071],\"max\":[0.8999999761581421,0.026000000536441803,0.699999988079071]}",
        "triangles": 2472
      },
      "children": [0, 1]
    },
    { "name": "Cloudway_Crackle_Release__FrameGold", "mesh": 0 },
    {
      "name": "Cloudway_Crackle_Release__Shard_01",
      "extras": { "pivot": "fragment-centroid", "releaseOrder": 1 },
      "translation": [-0.20333333313465118, 0, 0.4233333468437195],
      "mesh": 2
    },
    {
      "name": "Cloudway_Crackle_Release__Shard_02",
      "extras": { "pivot": "fragment-centroid", "releaseOrder": 2 },
      "translation": [0.3633333444595337, 0, 0.4233333468437195],
      "mesh": 3
    },
    {
      "name": "Cloudway_Crackle_Release__Shard_03",
      "extras": { "pivot": "fragment-centroid", "releaseOrder": 3 },
      "translation": [0.5933333039283752, 0, -0.009999999776482582],
      "mesh": 4
    },
    {
      "name": "Cloudway_Crackle_Release__Shard_04",
      "extras": { "pivot": "fragment-centroid", "releaseOrder": 4 },
      "translation": [0.25, 0, -0.44333332777023315],
      "mesh": 5
    },
    {
      "name": "Cloudway_Crackle_Release__Shard_05",
      "extras": { "pivot": "fragment-centroid", "releaseOrder": 5 },
      "translation": [-0.3166666626930237, 0, -0.44333332777023315],
      "mesh": 6
    },
    {
      "name": "Cloudway_Crackle_Release__Shard_06",
      "extras": { "pivot": "fragment-centroid", "releaseOrder": 6 },
      "translation": [-0.5400000214576721, 0, -0.009999999776482582],
      "mesh": 7
    },
    {
      "name": "Cloudway_Crackle_Release",
      "extras": {
        "assetId": "cloudway-platform-kit-v3-review",
        "platformFamily": "crackle_release",
        "state": "release",
        "units": "metres",
        "upAxis": "+Y",
        "origin": "top-centre of sampled donor landing datum",
        "landingPlaneY": 0,
        "landing_json": "{\"min\":[-0.85,0.0,-0.65],\"max\":[0.85,0.0,0.65],\"width\":1.7,\"depth\":1.3,\"edgeSemantics\":\"exact gold boundary marks gameplay support; original donor UV/PBR surface remains visible at the landing datum\"}",
        "collider_json": "{\"shape\":\"box\",\"width\":1.7,\"depth\":1.3,\"height\":0.24,\"topY\":0.0,\"center\":[0.0,-0.12,0.0]}",
        "visual_bounds_json": "{\"min\":[-0.8999999761581421,-0.0949999988079071,-0.699999988079071],\"max\":[0.8999999761581421,0.026000000536441803,0.699999988079071]}",
        "triangles": 308
      },
      "children": [3, 4, 5, 6, 7, 8, 9]
    },
    { "name": "Cloudway_Crackle_Warning__CrackGlow", "mesh": 8 },
    { "name": "Cloudway_Crackle_Warning__FrameGold", "mesh": 0 },
    { "name": "Cloudway_Crackle_Warning__Slab", "mesh": 1 },
    {
      "name": "Cloudway_Crackle_Warning",
      "extras": {
        "assetId": "cloudway-platform-kit-v3-review",
        "platformFamily": "crackle_warning",
        "state": "warning",
        "units": "metres",
        "upAxis": "+Y",
        "origin": "top-centre of sampled donor landing datum",
        "landingPlaneY": 0,
        "landing_json": "{\"min\":[-0.85,0.0,-0.65],\"max\":[0.85,0.0,0.65],\"width\":1.7,\"depth\":1.3,\"edgeSemantics\":\"exact gold boundary marks gameplay support; original donor UV/PBR surface remains visible at the landing datum\"}",
        "collider_json": "{\"shape\":\"box\",\"width\":1.7,\"depth\":1.3,\"height\":0.24,\"topY\":0.0,\"center\":[0.0,-0.12,0.0]}",
        "visual_bounds_json": "{\"min\":[-0.8999999761581421,-0.0949999988079071,-0.699999988079071],\"max\":[0.8999999761581421,0.026000000536441803,0.699999988079071]}",
        "triangles": 2616
      },
      "children": [11, 12, 13]
    },
    {
      "name": "frost_dense_donor",
      "extras": {
        "role": "accepted-dense-donor",
        "sourceTaskId": "01a0d008-eb11-7661-bca6-4fb4f1986fff",
        "sourceSha256": "5f1c6fe3ebafc293283841527392ffe0972b28b50bdaaba293bfaaeaa0bec67c",
        "topologyPreserved": true,
        "uniformScale": 0.946983124321097
      },
      "translation": [0, -0.21853827126324177, 0],
      "scale": [0.8999999761581421, 0.8999999761581421, 0.8999999761581421],
      "mesh": 9
    },
    {
      "name": "frost_donor_seam_front",
      "extras": { "role": "donor-frame-seam" },
      "translation": [0, -0.0020000000949949026, 0.4219626486301422],
      "scale": [0.824999988079071, 0.824999988079071, 0.824999988079071],
      "mesh": 10
    },
    {
      "name": "frost_donor_seam_left",
      "extras": { "role": "donor-frame-seam" },
      "translation": [-0.8224782347679138, -0.0020000000949949026, 0],
      "scale": [0.4219626486301422, 0.4219626486301422, 0.4219626486301422],
      "mesh": 11
    },
    {
      "name": "frost_donor_seam_rear",
      "extras": { "role": "donor-frame-seam" },
      "translation": [0, -0.0020000000949949026, -0.4219626486301422],
      "scale": [0.824999988079071, 0.824999988079071, 0.824999988079071],
      "mesh": 12
    },
    {
      "name": "frost_donor_seam_right",
      "extras": { "role": "donor-frame-seam" },
      "translation": [0.8224782347679138, -0.0020000000949949026, 0],
      "scale": [0.4219626486301422, 0.4219626486301422, 0.4219626486301422],
      "mesh": 13
    },
    {
      "name": "frost_landing_front",
      "extras": { "role": "landing-extension" },
      "translation": [0, -0.03500000014901161, 0.5279813408851624],
      "scale": [0.8500000238418579, 0.8500000238418579, 0.8500000238418579],
      "mesh": 14
    },
    {
      "name": "frost_landing_left",
      "extras": { "role": "landing-extension" },
      "translation": [-0.8282391428947449, -0.03500000014901161, 0],
      "scale": [0.4219626486301422, 0.4219626486301422, 0.4219626486301422],
      "mesh": 15
    },
    {
      "name": "frost_landing_rear",
      "extras": { "role": "landing-extension" },
      "translation": [0, -0.03500000014901161, -0.5279813408851624],
      "scale": [0.8500000238418579, 0.8500000238418579, 0.8500000238418579],
      "mesh": 16
    },
    {
      "name": "frost_landing_right",
      "extras": { "role": "landing-extension" },
      "translation": [0.8282391428947449, -0.03500000014901161, 0],
      "scale": [0.4219626486301422, 0.4219626486301422, 0.4219626486301422],
      "mesh": 17
    },
    {
      "name": "frost_outer_gold_front",
      "extras": { "role": "landing-boundary" },
      "translation": [0, -0.003000000026077032, 0.6389999985694885],
      "scale": [0.8500000238418579, 0.8500000238418579, 0.8500000238418579],
      "mesh": 18
    },
    {
      "name": "frost_outer_gold_left",
      "extras": { "role": "landing-boundary" },
      "translation": [-0.8389999866485596, -0.003000000026077032, 0],
      "scale": [0.628000020980835, 0.628000020980835, 0.628000020980835],
      "mesh": 19
    },
    {
      "name": "frost_outer_gold_rear",
      "extras": { "role": "landing-boundary" },
      "translation": [0, -0.003000000026077032, -0.6389999985694885],
      "scale": [0.8500000238418579, 0.8500000238418579, 0.8500000238418579],
      "mesh": 20
    },
    {
      "name": "frost_outer_gold_right",
      "extras": { "role": "landing-boundary" },
      "translation": [0.8389999866485596, -0.003000000026077032, 0],
      "scale": [0.628000020980835, 0.628000020980835, 0.628000020980835],
      "mesh": 21
    },
    {
      "name": "Cloudway_Frost",
      "extras": {
        "assetId": "cloudway-platform-kit-v1",
        "status": "runtime-delivery",
        "coordinates": "Blender Z-up; glTF +Y up; metres",
        "landingWidthMetres": 1.7,
        "landingDepthMetres": 1.3,
        "landingTopGlTfYMetres": 0,
        "colliderSizeMetres": [1.7, 0.24, 1.3],
        "sourceTopologyMutation": false,
        "fitMethod": "uniform donor fit plus authored non-overlapping landing frame",
        "assetRevision": 6,
        "sourceAssetId": "cloudway-frost-v6-review",
        "platformFamily": "frost",
        "state": "static",
        "units": "metres",
        "upAxis": "+Y",
        "origin": "top-centre of sampled donor landing datum",
        "landingPlaneY": 0,
        "landing_json": "{\"min\":[-0.85,0.0,-0.65],\"max\":[0.85,0.0,0.65],\"width\":1.7,\"depth\":1.3,\"edgeSemantics\":\"exact gold boundary marks gameplay support; original donor UV/PBR surface remains visible at the landing datum\"}",
        "collider_json": "{\"shape\":\"box\",\"width\":1.7,\"depth\":1.3,\"height\":0.24,\"topY\":0,\"center\":[0,-0.12,0]}"
      },
      "children": [15, 16, 17, 18, 19, 20, 21, 22, 23, 24, 25, 26, 27]
    },
    {
      "name": "glide_dense_donor",
      "extras": {
        "role": "accepted-dense-donor",
        "sourceTaskId": "01a0d009-7173-7142-8f57-0c4c8be24adf",
        "sourceSha256": "394507ad969b53c88bf007edca9d4cc013adf3bab377c10dc3867a606276e36f",
        "topologyPreserved": true,
        "uniformScale": 0.9477370419923079
      },
      "translation": [0, -0.1422685096040368, 0],
      "scale": [0.8999999761581421, 0.8999999761581421, 0.8999999761581421],
      "mesh": 22
    },
    {
      "name": "glide_donor_seam_front",
      "extras": { "role": "donor-frame-seam" },
      "translation": [0, -0.0020000000949949026, 0.3808465301990509],
      "scale": [0.824999988079071, 0.824999988079071, 0.824999988079071],
      "mesh": 23
    },
    {
      "name": "glide_donor_seam_rear",
      "extras": { "role": "donor-frame-seam" },
      "translation": [0, -0.0020000000949949026, -0.3808465301990509],
      "scale": [0.824999988079071, 0.824999988079071, 0.824999988079071],
      "mesh": 24
    },
    {
      "name": "glide_landing_front",
      "extras": { "role": "landing-extension" },
      "translation": [0, -0.03500000014901161, 0.5074232816696167],
      "scale": [0.8500000238418579, 0.8500000238418579, 0.8500000238418579],
      "mesh": 25
    },
    {
      "name": "glide_landing_left",
      "extras": { "role": "landing-extension" },
      "translation": [-0.8374999761581421, -0.03500000014901161, 0],
      "scale": [0.3808465301990509, 0.3808465301990509, 0.3808465301990509],
      "mesh": 26
    },
    {
      "name": "glide_landing_rear",
      "extras": { "role": "landing-extension" },
      "translation": [0, -0.03500000014901161, -0.5074232816696167],
      "scale": [0.8500000238418579, 0.8500000238418579, 0.8500000238418579],
      "mesh": 27
    },
    {
      "name": "glide_landing_right",
      "extras": { "role": "landing-extension" },
      "translation": [0.8374999761581421, -0.03500000014901161, 0],
      "scale": [0.3808465301990509, 0.3808465301990509, 0.3808465301990509],
      "mesh": 28
    },
    {
      "name": "glide_outer_gold_front",
      "extras": { "role": "landing-boundary" },
      "translation": [0, -0.003000000026077032, 0.6389999985694885],
      "scale": [0.8500000238418579, 0.8500000238418579, 0.8500000238418579],
      "mesh": 29
    },
    {
      "name": "glide_outer_gold_left",
      "extras": { "role": "landing-boundary" },
      "translation": [-0.8389999866485596, -0.003000000026077032, 0],
      "scale": [0.628000020980835, 0.628000020980835, 0.628000020980835],
      "mesh": 30
    },
    {
      "name": "glide_outer_gold_rear",
      "extras": { "role": "landing-boundary" },
      "translation": [0, -0.003000000026077032, -0.6389999985694885],
      "scale": [0.8500000238418579, 0.8500000238418579, 0.8500000238418579],
      "mesh": 31
    },
    {
      "name": "glide_outer_gold_right",
      "extras": { "role": "landing-boundary" },
      "translation": [0.8389999866485596, -0.003000000026077032, 0],
      "scale": [0.628000020980835, 0.628000020980835, 0.628000020980835],
      "mesh": 32
    },
    {
      "name": "Cloudway_Glide",
      "extras": {
        "assetId": "cloudway-platform-kit-v1",
        "status": "runtime-delivery",
        "coordinates": "Blender Z-up; glTF +Y up; metres",
        "landingWidthMetres": 1.7,
        "landingDepthMetres": 1.3,
        "landingTopGlTfYMetres": 0,
        "colliderSizeMetres": [1.7, 0.24, 1.3],
        "sourceTopologyMutation": false,
        "fitMethod": "uniform donor fit plus authored non-overlapping landing frame",
        "assetRevision": 6,
        "sourceAssetId": "cloudway-glide-v6-review",
        "platformFamily": "glide",
        "state": "static",
        "units": "metres",
        "upAxis": "+Y",
        "origin": "top-centre of sampled donor landing datum",
        "landingPlaneY": 0,
        "landing_json": "{\"min\":[-0.85,0.0,-0.65],\"max\":[0.85,0.0,0.65],\"width\":1.7,\"depth\":1.3,\"edgeSemantics\":\"exact gold boundary marks gameplay support; original donor UV/PBR surface remains visible at the landing datum\"}",
        "collider_json": "{\"shape\":\"box\",\"width\":1.7,\"depth\":1.3,\"height\":0.24,\"topY\":0,\"center\":[0,-0.12,0]}"
      },
      "children": [29, 30, 31, 32, 33, 34, 35, 36, 37, 38, 39]
    },
    {
      "name": "marble_dense_source_preserved",
      "extras": {
        "role": "source-preserved-dense-delivery",
        "sourceSha256": "fa4d01900561e257be18c7190ef893aa789f178d1d4ccd13c2da22427d1033bb",
        "sourceTopologyPreserved": true,
        "sourceTextureUvsPreserved": true,
        "geometryReduction": false
      },
      "translation": [
        0.001065969467163086, -0.1395605057477951, 0.000451505184173584
      ],
      "scale": [0.9008339643478394, 0.9008339643478394, 0.9008339643478394],
      "mesh": 33
    },
    {
      "name": "Cloudway_Marble",
      "extras": {
        "assetId": "cloudway-platform-kit-v1",
        "status": "runtime-delivery",
        "coordinates": "Blender Z-up; glTF +Y up; metres",
        "landingWidthMetres": 1.7,
        "landingDepthMetres": 1.3,
        "landingTopGlTfYMetres": 0,
        "colliderSizeMetres": [1.7, 0.24, 1.3],
        "sourceTopologyMutation": false,
        "fitMethod": "linear width fit; edge-protected cubic depth fit with front/back local scale equal to the width scale; piecewise vertical fit around the sampled landing datum",
        "assetRevision": 7,
        "sourceAssetId": "cloudway-marble-v7-dense-baseline",
        "platformFamily": "marble",
        "state": "static",
        "units": "metres",
        "upAxis": "+Y",
        "origin": "top-centre of sampled donor landing datum",
        "landingPlaneY": 0,
        "landing_json": "{\"min\":[-0.85,0.0,-0.65],\"max\":[0.85,0.0,0.65],\"width\":1.7,\"depth\":1.3,\"edgeSemantics\":\"exact gold boundary marks gameplay support; original donor UV/PBR surface remains visible at the landing datum\"}",
        "collider_json": "{\"shape\":\"box\",\"width\":1.7,\"depth\":1.3,\"height\":0.24,\"topY\":0,\"center\":[0,-0.12,0]}"
      },
      "children": [41]
    }
  ],
  "scenes": [{ "name": "Scene", "nodes": [2, 10, 14, 28, 40, 42] }],
  "scene": 0,
  "extensionsUsed": [
    "EXT_texture_webp",
    "KHR_materials_clearcoat",
    "KHR_materials_emissive_strength",
    "KHR_materials_ior",
    "KHR_materials_transmission",
    "KHR_materials_volume",
    "KHR_mesh_quantization"
  ],
  "extensionsRequired": ["EXT_texture_webp", "KHR_mesh_quantization"]
}
