<svg xmlns="http://www.w3.org/2000/svg" height="1024" preserveAspectRatio="none" style="display: block;" version="1.1" viewBox="0 0 2048 2048" width="1024">
<path d="M 0 0 L 2048 0 L 2048 2048 L 0 2048 L 0 0 z" fill="rgb(27,36,48)" transform="translate(0,0)"></path>
<path d="M 689.794 684.76 C 711.987 663.467 747.399 635.889 773.349 619.648 C 883.915 551.015 1017.16 528.946 1143.95 558.263 C 1168.22 564.399 1203.19 575.578 1225.63 586.903 C 1332.48 631.555 1426.2 734.905 1469.78 841.102 C 1482.99 873.292 1491.46 906.82 1498.34 940.872 C 1491.07 937.227 1483.75 933.682 1476.39 930.239 C 1420.69 904.739 1347.33 898.137 1289.37 919.798 C 1282.37 927.138 1263.88 927.286 1259.28 936.365 C 1260.18 944.618 1268.94 948.174 1273.59 954.903 C 1277.12 959.997 1280.56 965.468 1283.94 970.669 L 1285.83 971.454 L 1287.19 970.604 C 1295 965.797 1299.91 964.557 1308.5 961.531 L 1309.3 963.154 C 1274.01 976.821 1254.03 987.588 1223.21 1009.83 C 1190.48 1033.4 1168.22 1053.57 1129.22 1069.96 C 1086.52 1087.91 1048.19 1096.07 1001.5 1091.99 C 942.992 1086.88 898.213 1063.25 851.823 1029.23 C 832.956 1015.4 816.089 1000.62 796.021 988.023 C 773.842 974.096 755.72 967.754 732.234 958.516 C 721.517 955.685 709.695 952.378 698.962 950.858 C 624.068 940.249 562.507 981.923 506.503 1025.28 C 444.878 1073 372.494 1094.81 294.803 1083.05 C 248.98 1075.99 206.07 1056.26 169.277 1028.4 C 155.194 1017.74 140.53 1008.23 145.545 988.602 C 148.953 975.264 161.803 969.002 174.474 973.821 C 181.33 976.429 189.841 987.656 196.54 991.558 C 222.069 1009.27 249.978 1024 280.234 1031.83 C 344.105 1048.89 417.476 1034.27 470.781 994.968 C 499.55 973.759 522.338 955.123 554.313 936.634 C 569.377 863.835 597.218 798.036 642.858 739.168 C 654.119 722.105 675.103 698.929 689.794 684.76 z" fill="rgb(230,237,243)" transform="translate(0,0)"></path>
<path d="M 689.794 684.76 C 711.987 663.467 747.399 635.889 773.349 619.648 C 883.915 551.015 1017.16 528.946 1143.95 558.263 C 1168.22 564.399 1203.19 575.578 1225.63 586.903 C 1148.74 588.507 1102.87 610.417 1040.8 654.221 C 1027.01 665.159 1009.17 675.784 997.284 688.782 C 977.664 710.244 959.736 730.287 937.891 750.064 C 871.178 810.462 752.85 862.874 674.564 794.121 C 662.371 783.413 653.228 767 647.411 752.18 C 646.135 748.905 644.012 741.434 642.858 739.168 C 654.119 722.105 675.103 698.929 689.794 684.76 z" fill="rgb(198,197,197)" transform="translate(0,0)"></path>
<path d="M 689.794 684.76 C 711.987 663.467 747.399 635.889 773.349 619.648 C 883.915 551.015 1017.16 528.946 1143.95 558.263 C 1136.47 561.202 1103.09 566.554 1092.7 568.965 C 1056.56 577.216 1021.17 588.41 986.858 602.433 C 957.768 614.314 932.255 626.721 905.427 643.273 C 893.959 650.348 882.12 655.957 869.983 663.604 C 840.442 682.214 809.787 711.648 778.122 724.987 C 746.016 738.512 705.126 724.92 692.155 691.042 L 689.794 684.76 z" fill="rgb(230,237,243)" transform="translate(0,0)"></path>
<path d="M 554.313 936.634 C 610.242 910.106 651.03 898.873 713.91 906.331 C 762.77 914.526 802.453 933.575 842.519 962.496 C 863.115 977.363 880.451 993.159 902.402 1006.99 C 995.02 1065.33 1077.22 1054.42 1163.86 994.186 C 1171.77 988.691 1185.22 977.523 1192.59 973.123 C 1191.96 975.707 1191.37 976.401 1189.76 978.527 C 1195.58 984.89 1206.79 987.421 1212.92 992.584 C 1215.58 994.822 1221.69 1006.58 1223.21 1009.83 C 1190.48 1033.4 1168.22 1053.57 1129.22 1069.96 C 1086.52 1087.91 1048.19 1096.07 1001.5 1091.99 C 942.992 1086.88 898.213 1063.25 851.823 1029.23 C 832.956 1015.4 816.089 1000.62 796.021 988.023 C 773.842 974.096 755.72 967.754 732.234 958.516 C 721.517 955.685 709.695 952.378 698.962 950.858 C 624.068 940.249 562.507 981.923 506.503 1025.28 C 444.878 1073 372.494 1094.81 294.803 1083.05 C 248.98 1075.99 206.07 1056.26 169.277 1028.4 C 155.194 1017.74 140.53 1008.23 145.545 988.602 C 148.953 975.264 161.803 969.002 174.474 973.821 C 181.33 976.429 189.841 987.656 196.54 991.558 C 222.069 1009.27 249.978 1024 280.234 1031.83 C 344.105 1048.89 417.476 1034.27 470.781 994.968 C 499.55 973.759 522.338 955.123 554.313 936.634 z" fill="rgb(45,212,191)" transform="translate(0,0)"></path>
<path d="M 1192.59 973.123 C 1198.41 966.226 1250.04 936.24 1260.32 931.313 C 1269.71 926.784 1279.42 922.935 1289.37 919.798 C 1282.37 927.138 1263.88 927.286 1259.28 936.365 C 1260.18 944.618 1268.94 948.174 1273.59 954.903 C 1277.12 959.997 1280.56 965.468 1283.94 970.669 L 1285.83 971.454 L 1287.19 970.604 C 1295 965.797 1299.91 964.557 1308.5 961.531 L 1309.3 963.154 C 1274.01 976.821 1254.03 987.588 1223.21 1009.83 C 1221.69 1006.58 1215.58 994.822 1212.92 992.584 C 1206.79 987.421 1195.58 984.89 1189.76 978.527 C 1191.37 976.401 1191.96 975.707 1192.59 973.123 z" fill="rgb(88,166,255)" transform="translate(0,0)"></path>
<path d="M 1289.37 919.798 C 1347.33 898.137 1420.69 904.739 1476.39 930.239 C 1483.75 933.682 1491.07 937.227 1498.34 940.872 C 1529.65 959.322 1555.57 978.856 1585.41 998.697 C 1622.23 1023.19 1670.69 1039.35 1714.73 1038.69 C 1762.38 1037.82 1807.47 1022.21 1846.67 995.557 C 1856.76 988.694 1865.78 978.683 1876.99 973.565 C 1896.9 965.242 1916.07 991.189 1904.02 1008.5 C 1899.26 1015.24 1889.5 1021.99 1882.91 1027.19 C 1844.39 1057.66 1797.83 1077.15 1749.25 1083.99 C 1691.98 1092.11 1633.62 1081.31 1583.04 1053.25 C 1528.78 1023.85 1489.1 980.863 1428.6 962.677 C 1384.26 949.349 1353.13 948.728 1309.3 963.154 L 1308.5 961.531 C 1299.91 964.557 1295 965.797 1287.19 970.604 L 1285.83 971.454 L 1283.94 970.669 C 1280.56 965.468 1277.12 959.997 1273.59 954.903 C 1268.94 948.174 1260.18 944.618 1259.28 936.365 C 1263.88 927.286 1282.37 927.138 1289.37 919.798 z" fill="rgb(115,68,244)" transform="translate(0,0)"></path>
<metadata><recraft-signature>{"signed_by": "recraft", "signature_b64": "W25K/g1pxIKtxIiDr3tTY0SMzdtv2nuw8vdNNPPP8gR1qm++1p25kvEAwLHNC3VlabQU92WFQBHj6HqjPGJjAw==", "signing_algo": "Ed25519", "generation_timestamp": 1783752967, "identifier": "1756b8ee-eec0-45fe-a9c0-cee4dded7279"}</recraft-signature></metadata></svg>