<svg xmlns="http://www.w3.org/2000/svg" height="1024" preserveAspectRatio="none" style="display: block;" version="1.1" viewBox="0 0 2048 2048" width="1024">
<defs>
	<linearGradient gradientUnits="userSpaceOnUse" id="Gradient1" x1="1134.31" x2="1180.78" y1="1269.2" y2="1312.77">
		<stop class="stop0" offset="0" stop-color="rgb(192,188,198)" stop-opacity="1"></stop>
		<stop class="stop1" offset="1" stop-color="rgb(245,244,246)" stop-opacity="1"></stop>
	</linearGradient>
	<linearGradient gradientUnits="userSpaceOnUse" id="Gradient2" x1="895.185" x2="752.948" y1="1155.09" y2="1222.11">
		<stop class="stop0" offset="0" stop-color="rgb(195,192,199)" stop-opacity="1"></stop>
		<stop class="stop1" offset="1" stop-color="rgb(255,255,255)" stop-opacity="1"></stop>
	</linearGradient>
	<linearGradient gradientUnits="userSpaceOnUse" id="Gradient3" x1="827.881" x2="694.847" y1="1184.3" y2="1226.59">
		<stop class="stop0" offset="0" stop-color="rgb(158,155,166)" stop-opacity="1"></stop>
		<stop class="stop1" offset="1" stop-color="rgb(255,255,255)" stop-opacity="1"></stop>
	</linearGradient>
</defs>
<path d="M 0 0 L 2048 0 L 2048 2048 L 0 2048 L 0 0 z" fill="rgb(27,36,48)" transform="translate(0,0)"></path>
<path d="M 814.892 940.297 C 814.822 939.987 814.091 929.924 814.132 929.519 C 814.843 922.434 808.535 901.378 809.244 896.621 C 820.723 891.485 847.023 899.733 860.259 898.088 C 939.962 910.288 1013.63 1013.25 1068.91 1066.48 C 1073.95 1071.32 1080.34 1076.78 1085.12 1081.65 C 1086.23 1081.99 1098.84 1090.55 1101 1091.97 C 1118.8 1103.76 1139.25 1110.91 1160.51 1112.79 C 1207.68 1117.3 1239.83 1100.74 1274.75 1072.07 C 1278.39 1067.2 1292.38 1056.08 1297.71 1051.53 C 1312.99 1038.64 1328.09 1025.53 1343 1012.21 C 1368.08 989.536 1391.26 964.828 1416.24 942.116 C 1421.16 937.637 1426.72 932.676 1433.23 931.997 C 1439.25 931.318 1445.3 933.137 1449.95 937.032 C 1457.56 943.485 1461.41 957.196 1455.29 965.492 C 1448.93 974.133 1439.02 982.44 1431.18 989.996 C 1416.17 1004.65 1401.04 1019.18 1385.8 1033.6 C 1375.96 1042.78 1361.9 1054.88 1353.19 1064.57 L 1352.09 1065.8 C 1352.07 1122.67 1339.99 1172.2 1315.96 1223.88 C 1275.34 1311.2 1186.39 1387.85 1092.14 1410.75 C 1057.54 1423.95 983.069 1425.99 945.877 1419.21 C 929.086 1416.15 914.905 1411.55 899.274 1405.14 C 892.633 1402.87 880.098 1396.97 873.938 1393.84 C 862.453 1388.42 819.402 1366.15 811.903 1357.72 C 807.392 1355.48 795.726 1346.06 791.494 1342.53 C 758.003 1314.9 729.888 1281.33 708.556 1243.52 C 698.479 1225.16 689.842 1206.06 682.725 1186.37 C 672.394 1158.21 667.747 1141.22 668.81 1110.99 C 670.017 1076.65 677.44 1051.1 686.716 1018.92 C 688.744 1014.01 699.669 1002.84 704.754 1001.19 C 711.938 989.117 738.656 968.339 750.823 960.512 C 754.399 959.354 766.487 952.857 771.202 950.852 C 784.763 945.083 800.317 941.763 814.892 940.297 z" fill="rgb(27,36,48)" transform="translate(0,0)"></path>
<path d="M 814.892 940.297 C 814.822 939.987 814.091 929.924 814.132 929.519 C 814.843 922.434 808.535 901.378 809.244 896.621 C 820.723 891.485 847.023 899.733 860.259 898.088 C 939.962 910.288 1013.63 1013.25 1068.91 1066.48 C 1073.95 1071.32 1080.34 1076.78 1085.12 1081.65 C 1086.23 1081.99 1098.84 1090.55 1101 1091.97 C 1118.8 1103.76 1139.25 1110.91 1160.51 1112.79 C 1207.68 1117.3 1239.83 1100.74 1274.75 1072.07 C 1278.39 1067.2 1292.38 1056.08 1297.71 1051.53 C 1312.99 1038.64 1328.09 1025.53 1343 1012.21 C 1368.08 989.536 1391.26 964.828 1416.24 942.116 C 1421.16 937.637 1426.72 932.676 1433.23 931.997 C 1439.25 931.318 1445.3 933.137 1449.95 937.032 C 1457.56 943.485 1461.41 957.196 1455.29 965.492 C 1448.93 974.133 1439.02 982.44 1431.18 989.996 C 1416.17 1004.65 1401.04 1019.18 1385.8 1033.6 C 1375.96 1042.78 1361.9 1054.88 1353.19 1064.57 L 1352.09 1065.8 C 1345.83 1071.58 1325.58 1089.07 1321.36 1093.92 C 1308.76 1101.77 1293.57 1118.56 1280.16 1125.91 C 1237.06 1165.83 1136.67 1172.46 1088.97 1137.55 C 1056.96 1125.44 1016.37 1071.71 991.008 1047.49 C 936.726 995.656 896.751 937.853 814.892 940.297 z" fill="rgb(45,212,191)" transform="translate(0,0)"></path>
<path d="M 1274.75 1072.07 C 1278.39 1067.2 1292.38 1056.08 1297.71 1051.53 C 1312.99 1038.64 1328.09 1025.53 1343 1012.21 C 1368.08 989.536 1391.26 964.828 1416.24 942.116 C 1421.16 937.637 1426.72 932.676 1433.23 931.997 C 1439.25 931.318 1445.3 933.137 1449.95 937.032 C 1457.56 943.485 1461.41 957.196 1455.29 965.492 C 1448.93 974.133 1439.02 982.44 1431.18 989.996 C 1416.17 1004.65 1401.04 1019.18 1385.8 1033.6 C 1375.96 1042.78 1361.9 1054.88 1353.19 1064.57 L 1352.09 1065.8 C 1345.83 1071.58 1325.58 1089.07 1321.36 1093.92 C 1308.76 1101.77 1293.57 1118.56 1280.16 1125.91 C 1277.41 1125.79 1217.82 1162.32 1200.85 1155.86 C 1198.24 1150.46 1198.2 1122.62 1198.8 1115.72 C 1201.69 1111.73 1210.67 1110.09 1215.58 1108.88 C 1230.8 1105.15 1268.13 1086.5 1274.75 1072.07 z" fill="rgb(91,83,234)" transform="translate(0,0)"></path>
<path d="M 1321.36 1093.92 C 1325.58 1089.07 1345.83 1071.58 1352.09 1065.8 C 1352.07 1122.67 1339.99 1172.2 1315.96 1223.88 C 1275.34 1311.2 1186.39 1387.85 1092.14 1410.75 C 1089.55 1411.08 1082 1411.78 1080.16 1410.58 C 1077.77 1403.66 1074.86 1392.09 1074.68 1384.89 C 1077.72 1383.5 1078.77 1382.91 1081.37 1380.83 C 1092.09 1376.72 1103.88 1374.11 1114.88 1369.93 C 1183.1 1343.97 1241.64 1294.37 1277.71 1230.79 C 1302.96 1186.27 1313.72 1144.04 1321.36 1093.92 z" fill="rgb(244,248,253)" transform="translate(0,0)"></path>
<path d="M 686.716 1018.92 C 688.744 1014.01 699.669 1002.84 704.754 1001.19 C 684.725 1079.2 696.623 1161.97 737.812 1231.18 C 751.265 1253.04 767.071 1273.36 784.947 1291.78 C 788.158 1295.12 812.453 1317.17 813.082 1318.29 C 839.041 1338.09 855.141 1349.74 884.707 1364.24 C 879.236 1369.05 885.216 1388.11 873.938 1393.84 C 862.453 1388.42 819.402 1366.15 811.903 1357.72 C 807.392 1355.48 795.726 1346.06 791.494 1342.53 C 758.003 1314.9 729.888 1281.33 708.556 1243.52 C 698.479 1225.16 689.842 1206.06 682.725 1186.37 C 672.394 1158.21 667.747 1141.22 668.81 1110.99 C 670.017 1076.65 677.44 1051.1 686.716 1018.92 z" fill="url(#Gradient3)" transform="translate(0,0)"></path>
<path d="M 884.707 1364.24 C 888.23 1365.78 892.614 1367.54 895.93 1369.33 C 963.97 1393.08 1011.19 1397.47 1081.37 1380.83 C 1078.77 1382.91 1077.72 1383.5 1074.68 1384.89 C 1074.86 1392.09 1077.77 1403.66 1080.16 1410.58 C 1082 1411.78 1089.55 1411.08 1092.14 1410.75 C 1057.54 1423.95 983.069 1425.99 945.877 1419.21 C 929.086 1416.15 914.905 1411.55 899.274 1405.14 C 892.633 1402.87 880.098 1396.97 873.938 1393.84 C 885.216 1388.11 879.236 1369.05 884.707 1364.24 z" fill="rgb(138,151,166)" transform="translate(0,0)"></path>
<path d="M 969.345 1369.42 C 864.777 1360.07 756.249 1270.51 730.3 1169.35 C 715.854 1113.03 713.674 1027.27 743.406 975.958 C 742.812 989.116 741.223 1001.82 741.573 1015.04 C 742.887 1064.76 756.497 1113.66 780.256 1157.22 C 816.319 1223.18 873.675 1274.98 942.965 1304.15 C 958.364 1310.65 972.269 1314.71 988.198 1319.42 C 982.169 1320.52 978.092 1317.04 973.159 1317.96 C 970.042 1323.57 969.296 1360.97 970.282 1368.17 L 971.099 1368.59 L 969.345 1369.42 z" fill="url(#Gradient2)" transform="translate(0,0)"></path>
<path d="M 969.345 1369.42 L 971.099 1368.59 L 970.282 1368.17 C 969.296 1360.97 970.042 1323.57 973.159 1317.96 C 978.092 1317.04 982.169 1320.52 988.198 1319.42 C 995.218 1320.65 1003.02 1322.87 1009.49 1323.82 C 1028.18 1326.59 1048.43 1326.71 1067.21 1325.14 L 1067.93 1326.62 C 1072.15 1326.1 1076.1 1325.57 1080.36 1325.35 L 1081.45 1326.24 C 1081.83 1334.57 1080.49 1352.57 1082.66 1359.03 C 1086.03 1359.47 1085.71 1358.39 1089.86 1359.28 C 1054.92 1369.33 1020.64 1373.64 984.169 1371.24 C 981.953 1371.09 971.103 1370.1 969.345 1369.42 z" fill="rgb(138,151,166)" transform="translate(0,0)"></path>
<path d="M 1246.33 1235.03 L 1248.43 1236.39 C 1207.11 1300.46 1160.91 1334.42 1089.86 1359.28 C 1085.71 1358.39 1086.03 1359.47 1082.66 1359.03 C 1080.49 1352.57 1081.83 1334.57 1081.45 1326.24 L 1080.36 1325.35 C 1076.1 1325.57 1072.15 1326.1 1067.93 1326.62 L 1067.21 1325.14 L 1069.51 1324.9 C 1137.73 1317.47 1202.63 1289.49 1246.33 1235.03 z" fill="url(#Gradient1)" transform="translate(0,0)"></path>
<path d="M 1246.33 1235.03 C 1248.16 1231.85 1254.5 1224.12 1256.88 1221.19 C 1254.34 1226.1 1251.49 1231.81 1248.43 1236.39 L 1246.33 1235.03 z" fill="rgb(138,151,166)" transform="translate(0,0)"></path>
<path d="M 697.333 943.674 C 719.417 878.723 754.32 823.278 790.418 765.757 L 880.526 623.818 C 889.461 609.672 898.032 595.301 906.232 580.717 C 913.832 567.33 922.005 550.724 932.057 539.412 C 945.321 524.419 962.581 513.516 981.817 507.976 C 1009.05 500.103 1038.31 503.505 1063.01 517.418 C 1097.89 537.208 1101.16 556.758 1119.62 587.911 C 1175.3 681.873 1240.63 770.138 1289.98 867.942 C 1307.78 903.212 1323.23 937.189 1333.68 975.336 C 1328.19 988.615 1319.52 994.81 1308.83 1003.84 C 1303.88 983.633 1298.49 964.74 1290.6 944.981 C 1237.08 811.068 1144.19 698.208 1075.63 572.422 C 1067.75 559.937 1054.34 547.378 1040.97 541.698 C 1008.95 528.088 974.016 538.181 952.136 564.571 C 945.585 572.471 938.169 589.048 932.608 598.353 C 923.502 613.591 914.456 628.629 905.054 643.679 L 821.004 775.987 C 794.951 816.953 763.008 867.343 744.386 911.886 C 739.299 915.481 729.628 920.596 726.08 923.597 C 715.167 929.444 706.969 937.405 697.333 943.674 z" fill="rgb(244,248,253)" transform="translate(0,0)"></path>
<path d="M 744.386 911.886 C 781.655 896.602 820.177 887.19 860.259 898.088 C 847.023 899.733 820.723 891.485 809.244 896.621 C 808.535 901.378 814.843 922.434 814.132 929.519 C 814.091 929.924 814.822 939.987 814.892 940.297 C 800.317 941.763 784.763 945.083 771.202 950.852 C 766.487 952.857 754.399 959.354 750.823 960.512 C 738.656 968.339 711.938 989.117 704.754 1001.19 C 699.669 1002.84 688.744 1014.01 686.716 1018.92 C 671.724 1022.1 591.825 1117.61 568.444 1122.42 C 563.154 1123.51 557.641 1122.73 553.134 1119.65 C 547.892 1116.06 543.676 1109.23 542.881 1102.93 C 542.088 1096.65 544.625 1091.03 548.352 1086.12 C 558.226 1073.11 576.176 1059.16 588.365 1047.66 C 614.873 1022.71 641.201 997.57 667.348 972.244 C 675.15 964.819 691.785 951.381 697.333 943.674 C 706.969 937.405 715.167 929.444 726.08 923.597 C 729.628 920.596 739.299 915.481 744.386 911.886 z" fill="rgb(91,83,234)" transform="translate(0,0)"></path>
<path d="M 744.386 911.886 C 781.655 896.602 820.177 887.19 860.259 898.088 C 847.023 899.733 820.723 891.485 809.244 896.621 C 808.535 901.378 814.843 922.434 814.132 929.519 C 814.091 929.924 814.822 939.987 814.892 940.297 C 800.317 941.763 784.763 945.083 771.202 950.852 C 766.487 952.857 754.399 959.354 750.823 960.512 L 749.424 959.607 C 757.099 954.485 774.115 948.864 777.266 945.594 C 778.942 935.294 772.011 914.528 767.753 904.815 C 762.307 906.704 758.054 908.35 752.825 910.599 C 745.581 913.715 733.025 922.793 726.08 923.597 C 729.628 920.596 739.299 915.481 744.386 911.886 z" fill="rgb(88,166,255)" transform="translate(0,0)"></path>
<path d="M 848.423 785.785 C 862.925 782.748 877.146 792.033 880.199 806.531 C 883.252 821.03 873.983 835.261 859.488 838.33 C 844.97 841.404 830.712 832.118 827.654 817.596 C 824.596 803.075 833.898 788.827 848.423 785.785 z" fill="rgb(244,248,253)" transform="translate(0,0)"></path>
<metadata><recraft-signature>{"signed_by": "recraft", "signature_b64": "9t0vapUwuENO7HSIdnFZWMHZvS3zdiKrKef04wK//G1btz8agMktO6lwHus23jhesu/idJ+sHjiX3SLTyY1oAw==", "signing_algo": "Ed25519", "generation_timestamp": 1783752970, "identifier": "0c601249-3f0a-4efa-963d-f827ceb67cbc"}</recraft-signature></metadata></svg>