<svg xmlns="http://www.w3.org/2000/svg" height="1024" preserveAspectRatio="none" style="display: block;" version="1.1" viewBox="0 0 2048 2048" width="1024">
<defs>
	<linearGradient gradientUnits="userSpaceOnUse" id="Gradient1" x1="1188.83" x2="1097.19" y1="1213.39" y2="1135.85">
		<stop class="stop0" offset="0" stop-color="rgb(120,117,119)" stop-opacity="1"></stop>
		<stop class="stop1" offset="1" stop-color="rgb(223,222,222)" stop-opacity="1"></stop>
	</linearGradient>
	<linearGradient gradientUnits="userSpaceOnUse" id="Gradient2" x1="1607.51" x2="1667.11" y1="1296.38" y2="1298.81">
		<stop class="stop0" offset="0" stop-color="rgb(174,173,174)" stop-opacity="1"></stop>
		<stop class="stop1" offset="1" stop-color="rgb(221,220,220)" stop-opacity="1"></stop>
	</linearGradient>
	<linearGradient gradientUnits="userSpaceOnUse" id="Gradient3" x1="1491.33" x2="1599.84" y1="1224.9" y2="1088.48">
		<stop class="stop0" offset="0" stop-color="rgb(127,124,127)" stop-opacity="1"></stop>
		<stop class="stop1" offset="1" stop-color="rgb(213,212,211)" stop-opacity="1"></stop>
	</linearGradient>
	<linearGradient gradientUnits="userSpaceOnUse" id="Gradient4" x1="593.259" x2="610.38" y1="904.719" y2="865.027">
		<stop class="stop0" offset="0" stop-color="rgb(124,229,240)" stop-opacity="1"></stop>
		<stop class="stop1" offset="1" stop-color="rgb(186,231,241)" stop-opacity="1"></stop>
	</linearGradient>
	<linearGradient gradientUnits="userSpaceOnUse" id="Gradient5" x1="1067.27" x2="1008.31" y1="1301.29" y2="1296.2">
		<stop class="stop0" offset="0" stop-color="rgb(173,171,172)" stop-opacity="1"></stop>
		<stop class="stop1" offset="1" stop-color="rgb(213,213,213)" stop-opacity="1"></stop>
	</linearGradient>
</defs>
<path d="M 0 0 L 2048 0 L 2048 2048 L 0 2048 L 0 0 z" fill="rgb(13,17,23)" transform="translate(0,0)"></path>
<path d="M 603.384 814.641 C 610.564 784.543 631.548 748.937 658.542 732.534 C 677.204 721.128 699.642 717.627 720.892 722.806 C 738.01 727.079 755.43 738.522 767.61 751.084 C 793.629 777.919 801.945 817.24 812.179 852.028 L 834.235 926.519 L 893.391 1125.26 C 911.678 1187.07 915.363 1232.49 974.697 1268.59 C 1002.42 1280.23 1033.88 1284.09 1062.07 1271.27 C 1068.5 1279.61 1067.47 1304.25 1067.81 1315.29 C 1075.18 1316.52 1106.29 1297.31 1113.48 1292.17 C 1116.38 1290.08 1119.23 1287.93 1122.04 1285.72 L 1123.53 1286.58 C 1085.16 1321.09 1017.53 1338.94 969.003 1316.73 C 966.889 1316.42 962.411 1314.45 960.41 1313.51 C 930.44 1299.48 901.656 1274.82 884.923 1246.14 C 873.831 1227.13 867.48 1203.27 861.009 1182.24 C 853.507 1158.34 846.373 1134.32 839.609 1110.21 L 777.508 900.899 C 768.912 872.493 761.573 843.413 752.312 815.341 C 746.853 798.794 732.563 779.379 716.041 772.38 C 707.269 768.573 697.31 768.57 688.536 772.374 C 665.798 782.067 654.021 810.916 645.48 832.064 C 644.132 837.761 639.607 849.661 637.529 855.663 C 632.025 871.204 626.685 886.802 621.51 902.456 C 621.214 903.258 620.917 904.06 620.621 904.862 C 606.447 898.001 581.307 904.007 573.025 900.182 C 579.091 883.79 584.95 867.323 590.602 850.784 C 594.468 839.449 598.593 825.289 603.384 814.641 z" fill="rgb(244,248,253)" transform="translate(0,0)"></path>
<path d="M 974.697 1268.59 C 1002.42 1280.23 1033.88 1284.09 1062.07 1271.27 C 1068.5 1279.61 1067.47 1304.25 1067.81 1315.29 C 1075.18 1316.52 1106.29 1297.31 1113.48 1292.17 C 1116.38 1290.08 1119.23 1287.93 1122.04 1285.72 L 1123.53 1286.58 C 1085.16 1321.09 1017.53 1338.94 969.003 1316.73 C 978.478 1315.96 1005.8 1331.05 1007.72 1317.56 C 1008.55 1311.79 1017.49 1281.48 1014.41 1280.8 C 1006.64 1279.09 981.543 1277.94 974.697 1268.59 z" fill="url(#Gradient5)" transform="translate(0,0)"></path>
<path d="M 573.025 900.182 C 579.091 883.79 584.95 867.323 590.602 850.784 C 594.468 839.449 598.593 825.289 603.384 814.641 C 603.47 822.713 593.256 848.239 590.261 858.175 C 601.505 860.389 618.365 868.821 628.488 874.482 C 633.706 865.208 636.772 849.157 641.117 839.052 C 642.601 835.599 641.901 832.823 645.48 832.064 C 644.132 837.761 639.607 849.661 637.529 855.663 C 632.025 871.204 626.685 886.802 621.51 902.456 C 621.214 903.258 620.917 904.06 620.621 904.862 C 606.447 898.001 581.307 904.007 573.025 900.182 z" fill="url(#Gradient4)" transform="translate(0,0)"></path>
<path d="M 1181.26 1036.64 C 1182.27 1028.24 1197.48 979.923 1200.49 969.428 L 1231.63 863.921 C 1241.74 829.578 1247.63 799.161 1266.58 767.98 C 1292.05 725.565 1345.32 704.073 1389.14 733.358 C 1428.72 759.815 1440.49 802.434 1455.19 844.794 C 1466.64 877.626 1477.84 910.54 1488.8 943.533 L 1505.83 992.517 C 1508.4 999.9 1513.14 1012.43 1514.66 1019.77 C 1513.84 1028.59 1526.89 1056.91 1528.9 1068.46 C 1525.42 1071.52 1515.01 1070.64 1510.12 1070.35 C 1502.94 1069.93 1492.31 1073.49 1486.35 1072.69 C 1480.8 1063.19 1475.29 1038.24 1469.58 1031.93 C 1462.94 1015.45 1456.52 994.988 1450.53 977.975 C 1437.08 940.157 1423.96 902.22 1411.18 864.171 C 1405.77 848.043 1400.36 831.916 1395.15 815.725 C 1393.69 811.199 1391.94 804.737 1389.38 800.849 C 1358.68 754.29 1315.48 758.729 1296.29 813.508 C 1287.03 839.961 1279.26 867.369 1271.41 894.344 L 1245.6 980.978 C 1242.74 990.797 1231.25 1033.63 1228.31 1039.95 C 1221.13 1047.37 1221.85 1064.6 1216.87 1073.5 C 1215.39 1076.14 1215.17 1077.19 1214.49 1080.15 C 1205.52 1078.07 1196.28 1076.64 1187 1077.34 C 1180.82 1077.81 1177.12 1080.06 1170.82 1079.25 C 1169.82 1074.31 1181.72 1048.05 1181.26 1036.64 z" fill="rgb(244,248,253)" transform="translate(0,0)"></path>
<path d="M 1015.19 1064.07 C 1062.89 1059.79 1105.07 1094.91 1109.48 1142.6 C 1113.9 1190.29 1078.9 1232.57 1031.23 1237.12 C 983.354 1241.7 940.869 1206.52 936.432 1158.64 C 931.994 1110.75 967.293 1068.37 1015.19 1064.07 z" fill="rgb(244,248,253)" transform="translate(0,0)"></path>
<path d="M 1514.66 1019.77 C 1520.12 1032.92 1527.94 1056.38 1532.6 1070.54 C 1540.33 1094.02 1553.62 1127.84 1559.34 1150.78 C 1570.04 1174 1573.98 1201.88 1586.27 1226.53 C 1590.27 1234.54 1595.01 1242.16 1600.44 1249.29 C 1601.6 1250.79 1606.71 1256.62 1607.31 1257.55 C 1610.19 1259.95 1612.84 1262.43 1615.73 1264.82 C 1632.9 1277.12 1647.63 1280.15 1668.32 1281.23 L 1668.28 1329.83 C 1648.13 1329.08 1627.19 1326.57 1609.58 1315.6 C 1604.49 1314.03 1591.6 1304.88 1587.54 1301.34 C 1555.27 1283.14 1532.72 1215.27 1521.49 1181.06 C 1518.67 1173.9 1515.78 1166.32 1513.51 1158.97 C 1500.43 1116.64 1482.09 1074.24 1469.58 1031.93 C 1475.29 1038.24 1480.8 1063.19 1486.35 1072.69 C 1492.31 1073.49 1502.94 1069.93 1510.12 1070.35 C 1515.01 1070.64 1525.42 1071.52 1528.9 1068.46 C 1526.89 1056.91 1513.84 1028.59 1514.66 1019.77 z" fill="url(#Gradient3)" transform="translate(0,0)"></path>
<path d="M 1615.73 1264.82 C 1632.9 1277.12 1647.63 1280.15 1668.32 1281.23 L 1668.28 1329.83 C 1648.13 1329.08 1627.19 1326.57 1609.58 1315.6 C 1609.25 1309.82 1603.7 1317.46 1610.12 1301.57 C 1610.01 1301.85 1615.57 1267.01 1615.58 1266.85 L 1615.73 1264.82 z" fill="url(#Gradient2)" transform="translate(0,0)"></path>
<path d="M 1587.54 1301.34 C 1589.33 1300.39 1590.85 1301.25 1592.41 1302.94 C 1603.86 1315.94 1603.21 1297.11 1605.88 1288.04 C 1607.6 1282.21 1608.83 1269.96 1610.63 1263.72 C 1611.22 1261.67 1605.16 1261.23 1607.31 1257.55 C 1610.19 1259.95 1612.84 1262.43 1615.73 1264.82 L 1615.58 1266.85 C 1615.57 1267.01 1610.01 1301.85 1610.12 1301.57 C 1603.7 1317.46 1609.25 1309.82 1609.58 1315.6 C 1604.49 1314.03 1591.6 1304.88 1587.54 1301.34 z" fill="rgb(138,151,166)" transform="translate(0,0)"></path>
<path d="M 440.738 1252.07 C 442.852 1245.87 456.849 1229.27 460.732 1219.52 C 477.623 1177.12 488.544 1128.06 507.347 1086.78 C 507.654 1091.86 506.096 1095.5 503.913 1100.11 C 517.576 1103.27 537.303 1096.94 552.213 1094.97 C 553.899 1091.36 553.211 1091.13 555.954 1090.03 C 543.74 1126.52 530.974 1162.82 517.661 1198.93 C 508.663 1223.68 495.345 1267.47 475.401 1284.27 C 458.756 1305.65 435.031 1320.4 408.49 1325.86 C 399.078 1327.78 390.523 1328.76 380.955 1329.25 L 380.469 1281.28 C 413.884 1279.76 417.921 1272.43 440.738 1252.07 z" fill="rgb(95,39,228)" transform="translate(0,0)"></path>
<path d="M 440.738 1252.07 C 440.271 1261.07 418.097 1273.59 410.743 1277.34 L 410.684 1277.48 C 416.304 1289.06 414.702 1297.43 413.773 1310.27 C 413.494 1314.12 408.647 1324.8 408.518 1323.75 C 412.734 1323.59 425.748 1319.29 429.711 1317.61 C 435.015 1315.32 440.109 1312.58 444.931 1309.4 C 448.313 1307.16 452.316 1303.64 455.347 1301.74 C 459.693 1299.01 471.991 1282.55 475.401 1284.27 C 458.756 1305.65 435.031 1320.4 408.49 1325.86 C 399.078 1327.78 390.523 1328.76 380.955 1329.25 L 380.469 1281.28 C 413.884 1279.76 417.921 1272.43 440.738 1252.07 z" fill="rgb(162,33,232)" transform="translate(0,0)"></path>
<path d="M 1146.74 1152.72 C 1148.77 1141.54 1156.9 1115.99 1160.56 1104.21 C 1167.24 1082.68 1173.85 1057.67 1181.26 1036.64 C 1181.72 1048.05 1169.82 1074.31 1170.82 1079.25 C 1177.12 1080.06 1180.82 1077.81 1187 1077.34 C 1196.28 1076.64 1205.52 1078.07 1214.49 1080.15 C 1215.17 1077.19 1215.39 1076.14 1216.87 1073.5 C 1221.85 1064.6 1221.13 1047.37 1228.31 1039.95 C 1218.42 1078.46 1205.77 1117.07 1194.59 1155.25 C 1191.43 1166.01 1188.4 1178.07 1184.63 1188.46 C 1177.07 1223.73 1152.61 1264.92 1123.53 1286.58 L 1122.04 1285.72 C 1119.23 1287.93 1116.38 1290.08 1113.48 1292.17 C 1106.29 1297.31 1075.18 1316.52 1067.81 1315.29 C 1067.47 1304.25 1068.5 1279.61 1062.07 1271.27 C 1064.62 1270.14 1067.16 1268.98 1069.68 1267.79 C 1100.32 1253.21 1123.96 1224.08 1134.71 1192.3 C 1139.11 1179.29 1142.18 1165.54 1146.74 1152.72 z" fill="url(#Gradient1)" transform="translate(0,0)"></path>
<path d="M 551.71 960.695 C 554.241 951.873 558.735 940.88 561.942 931.991 C 565.671 921.657 569.137 910.297 573.025 900.182 C 581.307 904.007 606.447 898.001 620.621 904.862 C 615.634 920.08 609.913 938.8 603.584 953.197 C 593.952 982.586 582.715 1012.48 572.958 1042.01 C 569.878 1051.33 559.686 1081.97 555.954 1090.03 C 553.211 1091.13 553.899 1091.36 552.213 1094.97 C 537.303 1096.94 517.576 1103.27 503.913 1100.11 C 506.096 1095.5 507.654 1091.86 507.347 1086.78 C 508.659 1080.28 523.705 1038.99 527.244 1029.45 C 533.728 1011.97 544.44 975.375 551.71 960.695 z" fill="rgb(88,166,255)" transform="translate(0,0)"></path>
<path d="M 551.71 960.695 C 554.241 951.873 558.735 940.88 561.942 931.991 C 565.671 921.657 569.137 910.297 573.025 900.182 C 581.307 904.007 606.447 898.001 620.621 904.862 C 615.634 920.08 609.913 938.8 603.584 953.197 C 599.037 948.26 616.842 928.984 606.546 929.181 C 592.418 929.452 577.824 931.471 564.05 932.122 C 561.864 936.251 553.931 960.129 552.622 960.959 C 552.221 960.932 552.493 960.982 551.71 960.695 z" fill="rgb(45,212,191)" transform="translate(0,0)"></path>
<metadata><recraft-signature>{"signed_by": "recraft", "signature_b64": "aP2EnbiRvD9ZR6HNB2PfZzIJtqZdxDiMbFCLv1/iTSLFzM2i2PR/KoTfW3se3ZFW/a65OxTivFXcge3Oy8BrDQ==", "signing_algo": "Ed25519", "generation_timestamp": 1783752983, "identifier": "f1de70e2-9bf7-425d-ab45-651c4463d744"}</recraft-signature></metadata></svg>