<svg xmlns="http://www.w3.org/2000/svg" height="1024" preserveAspectRatio="none" style="display: block;" version="1.1" viewBox="0 0 2048 2048" width="1024">
<defs>
	<linearGradient gradientUnits="userSpaceOnUse" id="Gradient1" x1="1526.97" x2="1557.94" y1="1021.97" y2="1022">
		<stop class="stop0" offset="0" stop-color="rgb(166,165,165)" stop-opacity="1"></stop>
		<stop class="stop1" offset="1" stop-color="rgb(212,211,211)" stop-opacity="1"></stop>
	</linearGradient>
	<linearGradient gradientUnits="userSpaceOnUse" id="Gradient2" x1="838.088" x2="406.563" y1="1094.58" y2="1174.96">
		<stop class="stop0" offset="0" stop-color="rgb(72,185,244)" stop-opacity="1"></stop>
		<stop class="stop1" offset="1" stop-color="rgb(234,233,247)" stop-opacity="1"></stop>
	</linearGradient>
</defs>
<path d="M 0 0 L 2048 0 L 2048 2048 L 0 2048 L 0 0 z" fill="rgb(13,17,23)" transform="translate(0,0)"></path>
<path d="M 957.482 803.664 C 968.281 785.791 988.37 768.845 1009.06 763.771 C 1025.95 759.495 1043.85 762.359 1058.56 771.691 C 1086.4 788.986 1112.74 838.935 1123.47 869.68 C 1150.19 946.294 1169.21 1026.7 1192.94 1104.26 C 1210.3 1160.48 1260.66 1336.16 1333.73 1217.86 C 1346.29 1197.53 1355.92 1174.14 1367.23 1152.94 C 1408.36 1075.86 1424.06 1019.62 1520.25 1007.01 C 1519.45 1019.12 1518.2 1025.99 1519.45 1038.72 C 1469.21 1038.86 1449.32 1064.63 1424.99 1105.16 C 1396.42 1152.78 1378.75 1206.79 1345.32 1251.14 C 1333.03 1267.45 1312.83 1283.34 1291.87 1285.11 C 1205.65 1294.87 1164.74 1112.35 1147.13 1050.24 C 1138.12 1019.04 1129.33 987.782 1120.77 956.459 C 1106.29 903.85 1090.94 838.06 1048.64 799.635 C 1041.14 792.82 1029.58 788.596 1019.35 789.868 C 1000.58 792.2 988.328 810.108 977.903 824.318 C 935.836 894.46 917.262 966.493 896.621 1044.83 C 883.104 1096.13 865.181 1182.12 835.359 1226.49 C 833.289 1222.98 854.706 1190.87 853.726 1182.35 C 852.809 1174.38 846.748 1163.67 837.846 1163.95 C 834.596 1166.51 831.258 1176.39 829.116 1180.95 L 827.624 1180.79 C 849.799 1122.09 863.151 1070.82 876.523 1009.85 C 887.954 957.735 910.112 903.6 928.884 853.732 C 934.23 839.531 947.97 815.628 957.482 803.664 z" fill="rgb(45,212,191)" transform="translate(0,0)"></path>
<path d="M 827.624 1180.79 C 849.799 1122.09 863.151 1070.82 876.523 1009.85 C 887.954 957.735 910.112 903.6 928.884 853.732 C 934.23 839.531 947.97 815.628 957.482 803.664 C 957.485 804.09 957.488 804.515 957.491 804.941 C 950.972 819.045 939.672 832.821 933.589 847.368 C 904.746 916.356 881.031 988.065 866.468 1061.5 C 865.51 1066.33 860.024 1082.55 860.94 1086.06 C 862.316 1081.68 861.621 1081.39 865.013 1079.19 C 869.914 1076.02 885.448 1078.01 886.888 1073.66 C 893.569 1053.49 897.954 1031.55 903.655 1010.97 C 918.842 956.133 935.427 900.252 961.36 849.464 C 965.178 841.987 970.881 830.927 976.192 824.813 L 977.903 824.318 C 935.836 894.46 917.262 966.493 896.621 1044.83 C 883.104 1096.13 865.181 1182.12 835.359 1226.49 C 833.289 1222.98 854.706 1190.87 853.726 1182.35 C 852.809 1174.38 846.748 1163.67 837.846 1163.95 C 834.596 1166.51 831.258 1176.39 829.116 1180.95 L 827.624 1180.79 z" fill="rgb(88,166,255)" transform="translate(0,0)"></path>
<path d="M 653.883 953.837 C 666.849 954.059 707.539 952.722 717.24 954.899 L 718.307 956.029 C 715.243 964.374 714.479 971.184 709.822 978.342 L 709.004 978.522 C 707.158 978.954 705.319 979.413 703.487 979.9 C 676.105 980.496 642.874 974.256 624.403 996.896 C 616.922 1006.07 605.615 1016.01 596.669 1023.76 C 621.283 1036.41 637.944 1033.91 665.075 1033.97 C 689.455 1034.03 714.187 1033.31 738.532 1033.82 C 743.205 1035.34 744.027 1035.85 748.17 1038.54 C 745.567 1045.69 748.816 1054.25 743.737 1058.37 C 738.325 1059.14 732.889 1059.84 727.529 1060.89 C 696.881 1061.14 665.697 1060.65 635.166 1061.1 C 649.788 1086.01 654.194 1103.56 663.96 1131 C 678.496 1171.85 709.649 1242.19 753.476 1256.08 C 787.897 1266.99 815.421 1206.96 827.624 1180.79 L 829.116 1180.95 C 831.258 1176.39 834.596 1166.51 837.846 1163.95 C 846.748 1163.67 852.809 1174.38 853.726 1182.35 C 854.706 1190.87 833.289 1222.98 835.359 1226.49 C 825.95 1247.45 800.294 1275.63 777.638 1282.69 C 760.742 1287.94 740.627 1284.08 725.81 1274.49 C 683.262 1246.54 658.165 1193.18 640.647 1146.18 C 625.591 1105.78 614.539 1052.94 564.61 1040.3 C 546.997 1035.84 518.036 1038.38 498.687 1038.59 L 415.026 1039.07 C 406.249 1039.1 391.935 1040.28 384.091 1036.53 C 373.191 1031.31 376.697 1012.23 388.571 1011.3 C 401.263 1010.3 415.089 1010.89 427.997 1010.91 L 501.355 1010.97 C 515.239 1010.98 528.756 1011.02 542.608 1010.67 C 605.345 1009.05 590.146 957.521 653.883 953.837 z" fill="url(#Gradient2)" transform="translate(0,0)"></path>
<path d="M 1573.34 950.53 C 1582.23 946.674 1594.24 946.874 1603.7 948.017 C 1624.78 951.155 1641.73 960.124 1654.29 977.697 C 1660.05 985.757 1666.06 994.906 1665.95 1005.14 C 1665.53 1045.41 1669.69 1067.06 1630.97 1091.08 L 1625.73 1093.4 C 1619.08 1096.2 1614.44 1098.07 1607.07 1099.04 C 1594.26 1100.7 1585.4 1100.63 1572.97 1096.45 C 1555.79 1092.4 1542.81 1080.53 1532.33 1067.01 C 1526.06 1058.61 1521.67 1048.96 1519.45 1038.72 C 1518.2 1025.99 1519.45 1019.12 1520.25 1007.01 C 1521.81 1000 1522.35 997.852 1525.87 991.12 C 1527.24 988.519 1528.68 985.951 1530.18 983.418 C 1539.77 967.375 1555.16 955.202 1573.34 950.53 z" fill="rgb(244,248,253)" transform="translate(0,0)"></path>
<path d="M 1603.7 948.017 C 1624.78 951.155 1641.73 960.124 1654.29 977.697 C 1660.05 985.757 1666.06 994.906 1665.95 1005.14 C 1665.53 1045.41 1669.69 1067.06 1630.97 1091.08 L 1625.73 1093.4 C 1619.08 1096.2 1614.44 1098.07 1607.07 1099.04 C 1609.86 1097.41 1612.68 1095.83 1615.52 1094.29 C 1613.88 1086.76 1611.88 1075.78 1612.31 1068.19 L 1612.54 1068.89 C 1614.07 1049.73 1612.87 1031.62 1612.87 1012.46 C 1613.3 1009.36 1611.39 994.283 1612.06 992.294 C 1617.66 975.641 1619.99 972.632 1615.99 954.645 C 1614.01 952.594 1606.93 949.872 1603.7 948.017 z" fill="rgb(196,195,195)" transform="translate(0,0)"></path>
<path d="M 1632.51 985.733 C 1632.55 981.943 1632.38 975.695 1633.09 972.188 C 1633.9 976.303 1635.2 988.939 1633.39 992.308 L 1632.5 992.058 C 1626.7 1011.51 1631.73 1069.11 1630.97 1091.08 L 1625.73 1093.4 C 1626.27 1092.45 1628.65 1088.52 1628.67 1087.53 C 1629.21 1063.71 1628.65 1039.69 1627.53 1015.88 C 1627.1 1006.65 1627.75 998.95 1628.95 989.902 C 1629.76 990.526 1629.23 990.159 1630.59 990.901 L 1630.96 990.785 L 1632.51 985.733 z" fill="rgb(138,151,166)" transform="translate(0,0)"></path>
<path d="M 1525.87 991.12 C 1527.24 988.519 1528.68 985.951 1530.18 983.418 C 1539.77 967.375 1555.16 955.202 1573.34 950.53 C 1568.43 955.378 1562.9 955.496 1559.62 959.166 C 1555.09 991.639 1556.48 1029.88 1557.34 1062.52 C 1557.51 1068.7 1554.92 1083.97 1557.71 1087.42 C 1561.27 1091.84 1570.64 1091.24 1572.97 1096.45 C 1555.79 1092.4 1542.81 1080.53 1532.33 1067.01 C 1526.06 1058.61 1521.67 1048.96 1519.45 1038.72 C 1518.2 1025.99 1519.45 1019.12 1520.25 1007.01 C 1521.81 1000 1522.35 997.852 1525.87 991.12 z" fill="url(#Gradient1)" transform="translate(0,0)"></path>
<path d="M 1520.25 1007.01 C 1521.81 1000 1522.35 997.852 1525.87 991.12 C 1528.1 1002.83 1527.4 1014.74 1529.28 1026.5 C 1530.56 1034.52 1528.15 1044.62 1530.27 1052.52 C 1530.9 1058.2 1531.26 1061.11 1532.33 1067.01 C 1526.06 1058.61 1521.67 1048.96 1519.45 1038.72 C 1518.2 1025.99 1519.45 1019.12 1520.25 1007.01 z" fill="rgb(138,151,166)" transform="translate(0,0)"></path>
<path d="M 653.883 953.837 C 664.815 952.382 678.312 953.013 689.565 953.007 C 737.978 953.062 786.448 952.559 834.848 953.192 C 856.216 953.472 852.429 979.271 837.92 979.618 C 794.956 980.646 749.958 980.587 707.069 980.039 C 705.874 980.018 704.68 979.972 703.487 979.9 C 705.319 979.413 707.158 978.954 709.004 978.522 L 709.822 978.342 C 714.479 971.184 715.243 964.374 718.307 956.029 L 717.24 954.899 C 707.539 952.722 666.849 954.059 653.883 953.837 z" fill="rgb(88,166,255)" transform="translate(0,0)"></path>
<path d="M 738.532 1033.82 C 755.818 1033.57 773.107 1033.48 790.395 1033.55 C 804.982 1033.56 847.488 1030.55 827.928 1057.43 C 825.111 1061.3 811.009 1061.22 806.435 1061.15 C 780.215 1060.74 753.721 1061.54 727.529 1060.89 C 732.889 1059.84 738.325 1059.14 743.737 1058.37 C 748.816 1054.25 745.567 1045.69 748.17 1038.54 C 744.027 1035.85 743.205 1035.34 738.532 1033.82 z" fill="rgb(88,166,255)" transform="translate(0,0)"></path>
<metadata><recraft-signature>{"signed_by": "recraft", "signature_b64": "jmkyB05LIIbasbui/MIWrDr7bkZVRp+5t2U6FIR+iW29H6pPettsJjoVWNvkGj8MoPbK5n1FM87bQSpQvrhjDA==", "signing_algo": "Ed25519", "generation_timestamp": 1783752987, "identifier": "34f3ed13-c8cb-4eb4-b276-e9b608e74045"}</recraft-signature></metadata></svg>