<svg xmlns="http://www.w3.org/2000/svg" viewBox="0 0 100 100">
  <!-- Flux: Vocal Runs Specialist (Focused) -->
  <defs>
    <linearGradient id="fluxGrad" x1="0%" y1="0%" x2="0%" y2="100%">
      <stop offset="0%" style="stop-color:#58a6ff;stop-opacity:1" />
      <stop offset="100%" style="stop-color:#3fb950;stop-opacity:1" />
    </linearGradient>
  </defs>
  <path d="M50 20 C70 20 80 40 80 60 C80 80 60 90 40 90 C20 90 20 70 20 50 C20 30 30 20 50 20" fill="url(#fluxGrad)" />
  <!-- Agility Lines -->
  <path d="M20 30 L10 25" stroke="white" stroke-width="1.5" opacity="0.6" />
  <path d="M80 30 L90 25" stroke="white" stroke-width="1.5" opacity="0.6" />
  <path d="M50 15 L50 5" stroke="white" stroke-width="1.5" opacity="0.6" />
  <!-- Eyes (Tracking) -->
  <path d="M35 48 L45 48 L48 52 L38 52 Z" fill="white" />
  <path d="M55 48 L65 48 L68 52 L58 52 Z" fill="white" />
  <!-- Mouth (Determined) -->
  <path d="M45 75 Q50 78 55 75" stroke="white" stroke-width="2" fill="none" stroke-linecap="round" />
</svg>
